<?xml version="1.0" standalone="no"?>
<!DOCTYPE svg PUBLIC "-//W3C//DTD SVG 1.1//EN" "http://www.w3.org/Graphics/SVG/1.1/DTD/svg11.dtd" >
<svg xmlns="http://www.w3.org/2000/svg" xmlns:xlink="http://www.w3.org/1999/xlink" version="1.1">
<metadata></metadata>
<defs>
<font id="aglettericalightcondensedcIt" horiz-adv-x="909" >
<font-face units-per-em="2048" ascent="1655" descent="-393" />
<missing-glyph horiz-adv-x="454" />
<glyph horiz-adv-x="0" />
<glyph horiz-adv-x="682" />
<glyph unicode=" "  horiz-adv-x="454" />
<glyph unicode="&#x09;" horiz-adv-x="454" />
<glyph unicode="&#xa0;" horiz-adv-x="454" />
<glyph unicode="!" horiz-adv-x="454" d="M59 27l33 180h141l-32 -180h-142zM156 387q11 76 31.5 232t38 277t36.5 232l72 408h131l-72 -408q-33 -193 -155 -741h-82z" />
<glyph unicode="&#x22;" horiz-adv-x="632" d="M236 1073l81 463h107l-82 -463h-106zM463 1073l82 463h106l-82 -463h-106z" />
<glyph unicode="#" d="M-2 0l221 510h-205l49 104h199l117 269h-203l49 104h197l227 537h99l-230 -537h144l227 537h96l-227 -537h196l-49 -104h-188l-117 -269h193l-50 -104h-186l-217 -510h-102l221 510h-144l-221 -510h-96zM358 614h144l116 269h-141z" />
<glyph unicode="$" d="M9.5 260.5q-5.5 80.5 17.5 171.5h123q-15 -66 -15.5 -123t14.5 -108t57 -84t109 -39l107 610q-39 19 -71 37t-63.5 41.5t-53 48t-41 55.5t-27 65t-10.5 76t8 89q5 29 15.5 62.5t40 84.5t69.5 91.5t110.5 74.5t157.5 43l25 137h96l-23 -127q306 -65 248 -395h-119 q10 43 5.5 88t-18.5 83.5t-49 68t-87 41.5l-100 -570q154 -71 221 -145q49 -56 65.5 -120t-0.5 -155q-29 -167 -142.5 -269.5t-285.5 -121.5l-31 -168h-96l31 168q-94 8 -158.5 47t-94 100.5t-35 142zM291 1090q-9 -52 1.5 -101t50 -95t103.5 -71l93 529q-207 -32 -248 -262 zM412 76q112 4 188 86t96 198q19 106 -32 173t-152 112z" />
<glyph unicode="%" horiz-adv-x="1593" d="M231 1010.5q3 47.5 13 109.5q14 78 37 138.5t61 116t99.5 86t142.5 30.5q53 0 92.5 -14.5t63.5 -41.5t38.5 -61.5t18 -77.5t1 -85.5t-11.5 -90.5q-63 -364 -333 -364q-68 0 -115 21t-70 53.5t-31.5 82.5t-5.5 97.5zM332 -31l897 1549h90l-897 -1549h-90zM360 1122 q-27 -150 2.5 -213t112.5 -63q148 0 199 276q6 35 8.5 60.5t4 61t-4.5 60t-18 48.5t-36.5 36.5t-58.5 12.5q-43 1 -78 -20.5t-56.5 -51.5t-38 -72t-24 -72t-12.5 -63zM850 252.5q3 48.5 14 109.5q65 371 340 371q63 0 107.5 -21.5t67.5 -56.5t33 -85t8 -100t-13 -108 q-63 -366 -334 -366q-68 0 -115 21t-70.5 54t-32 83t-5.5 98.5zM979 362q-27 -150 2.5 -213t112.5 -63q150 0 198 276q6 35 9 61t5 61t-4 60.5t-18 49t-36.5 36.5t-59.5 13q-156 2 -209 -281z" />
<glyph unicode="&#x26;" horiz-adv-x="1251" d="M96 397q15 82 52 153.5t95 131.5t115.5 105t135.5 96q-27 53 -39 79t-29.5 71.5t-22.5 79t-5.5 80.5t8.5 97q24 133 113.5 208t217.5 75q123 0 191 -74.5t45 -200.5q-25 -137 -107 -237.5t-217 -188.5l232 -499q1 3 4 7t4 5q71 136 104 317h133q-19 -97 -68 -226.5 t-100 -201.5l-12 -16l123 -272h-145l-78 155l-8 -8q-89 -90 -185 -130t-213 -40q-194 0 -286.5 115.5t-57.5 318.5zM227 385q-25 -137 41 -220t197 -83q203 0 328 162l-261 540q-135 -87 -207.5 -176t-97.5 -223zM524 1294q-24 -153 76 -331q89 54 154.5 140t83.5 181 q14 86 -16.5 128t-112.5 42q-74 0 -123 -42t-62 -118z" />
<glyph unicode="'" horiz-adv-x="405" d="M236 1073l81 463h107l-82 -463h-106z" />
<glyph unicode="(" horiz-adv-x="569" d="M91 85.5q-29 244.5 22 524.5q45 261 164 510.5t301 452.5h96q-330 -396 -428 -961q-104 -589 82 -1003h-97q-111 232 -140 476.5z" />
<glyph unicode=")" horiz-adv-x="569" d="M-102 -391q331 393 430 958q50 262 34 509.5t-106 475.5q-3 3 -7 11l-5 10h96q106 -216 138.5 -466.5t-13.5 -510.5q-101 -581 -471 -987h-96z" />
<glyph unicode="*" horiz-adv-x="796" d="M223 1290l43 86l215 -86l41 234h90l-41 -234l242 86l12 -92l-237 -74l110 -215l-84 -49l-114 219l-197 -219l-61 55l190 213z" />
<glyph unicode="+" d="M20 451l19 104h360l78 449h105l-78 -449h360l-18 -104h-361l-79 -451h-105l80 451h-361z" />
<glyph unicode="," horiz-adv-x="454" d="M6 -279l14 76q13 5 24 14t19 17t15 22t11 22.5t8.5 26t6 24.5t5 26.5t4.5 23.5l4 27h-62l33 180h141l-20 -114q-11 -64 -31 -146q-23 -91 -61.5 -135.5t-110.5 -63.5z" />
<glyph unicode="-" horiz-adv-x="681" d="M66 551l22 119h530l-22 -119h-530z" />
<glyph unicode="." horiz-adv-x="454" d="M55 0l33 180h141l-32 -180h-142z" />
<glyph unicode="/" horiz-adv-x="569" d="M-158 -193l805 1729h113l-807 -1729h-111z" />
<glyph unicode="0" d="M62.5 270.5q-5.5 62.5 0 147.5t16 162.5t27.5 177.5q33 190 79 330t94.5 222.5t109 131.5t116 65.5t122.5 16.5q61 0 109.5 -18t79 -50t52 -74.5t30 -94t12 -105.5t-1 -112.5t-11 -110.5t-15.5 -104t-16 -90q-6 -29 -8 -42q-15 -89 -30 -158t-38.5 -150.5t-50.5 -142 t-66 -120t-85.5 -97.5t-109.5 -61t-136 -23q-70 0 -122 22t-84 59.5t-50 96.5t-23.5 121.5zM193.5 422.5q-8.5 -120.5 7 -197t53.5 -110t104 -33.5q26 0 42.5 2t48.5 14.5t55.5 35.5t56 71t59 115.5t55 173t52.5 239.5q12 67 20 115t16 106t11.5 99.5t5 88.5t-3 79 t-12.5 65.5t-23.5 54.5t-36 38.5t-49.5 25.5t-65 8q-86 0 -147.5 -64t-112.5 -214.5t-97 -411.5q-31 -180 -39.5 -300.5z" />
<glyph unicode="1" d="M223 1147l17 96q67 2 117 10t96.5 26.5t80 49.5t60.5 79.5t45 115.5h109l-269 -1524h-133l207 1171q-38 -7 -158 -16q-133 -9 -172 -8z" />
<glyph unicode="2" d="M-33 0l19 106q13 60 33.5 109.5t39 82t56.5 72.5t62 61t80 68t87 74q32 28 87 74.5t79.5 68t65.5 59.5t60 61t46.5 59.5t41.5 69t28 74.5t22 89q11 45 6 94t-19.5 90t-49 69t-82.5 32q-63 8 -115 -8.5t-86 -47.5t-61.5 -80t-43 -97t-28.5 -109h-127q13 92 48 172.5 t89.5 144t134.5 100t174 36.5q162 0 243 -111.5t48 -296.5q-12 -68 -40.5 -134.5t-73 -127.5t-90.5 -113t-111 -110t-114 -98.5t-120 -98t-110 -90.5q-20 -17 -40.5 -41t-46 -74t-36.5 -104h608l-22 -125h-742z" />
<glyph unicode="3" d="M16 280q1 54 13 117h125q-12 -62 -7.5 -119t22 -100.5t62.5 -69.5t115 -26q68 0 123.5 27t92.5 74t60.5 102.5t34.5 120.5q7 40 7.5 77t-11 81t-36.5 76.5t-76 56t-123 26.5h-90l20 111h41q306 0 359 305q12 52 7.5 101.5t-20.5 87.5t-55.5 61.5t-97.5 23.5 q-197 0 -273 -299h-121q14 81 45.5 152.5t80.5 130t120.5 93t155.5 34.5q174 0 247.5 -110t41.5 -286q-4 -24 -12 -50.5t-29 -69.5t-49.5 -80.5t-79 -76.5t-113.5 -63q59 -14 101 -44.5t64 -68t31.5 -86t8.5 -93.5t-10 -95q-15 -85 -45.5 -154.5t-65.5 -113t-80 -76 t-82 -48.5t-79 -25.5t-64 -11t-43 -1.5h-3q-12 0 -22 0.5t-34.5 2t-44.5 7.5t-48 15t-49 25.5t-44.5 38.5t-37.5 54.5t-24 72t-9 93.5z" />
<glyph unicode="4" d="M27 410l22 122l701 992h124l-176 -1004h136l-21 -110h-135l-72 -410h-133l72 410h-518zM168 520h397l135 764h-4z" />
<glyph unicode="5" d="M16 365h131q-31 -283 181 -283q61 0 113 24.5t88 63.5t64.5 94.5t46 111.5t28.5 120q64 376 -197 376q-71 0 -134.5 -40t-103.5 -107h-112l225 770h569l-22 -125h-459l-139 -465q90 78 225 78q82 0 141.5 -28t92 -74t47 -111t13.5 -133t-15 -145q-14 -82 -39.5 -155.5 t-67 -141.5t-95 -117t-127 -78t-159.5 -29q-182 0 -251.5 105t-43.5 289z" />
<glyph unicode="6" d="M58 366.5q0 47.5 5.5 104t11.5 100t15 93.5q5 24 16 77q18 89 29.5 139t38 144t51.5 152t68.5 131.5t91.5 115t116.5 71.5t147.5 30q144 -2 216.5 -93t45.5 -243h-123q11 108 -27.5 166.5t-142.5 58.5q-84 0 -152.5 -72t-107.5 -165q-58 -144 -108 -359h4 q140 146 297 146q79 0 136 -31t87 -79.5t44 -113.5t13 -128t-12 -128q-12 -68 -32.5 -132t-58.5 -135.5t-87 -123.5t-123 -86.5t-162 -34.5q-58 0 -104.5 15.5t-79 41.5t-55 64.5t-35.5 80t-18.5 94t-5.5 100zM181.5 396.5q-3.5 -52.5 3.5 -111t25.5 -102t59 -72.5t99.5 -29 q56 0 105.5 26.5t83 67.5t60.5 95.5t42 104t24 99.5q10 54 12.5 102.5t-5.5 100.5t-28 89t-61 61t-100 24q-71 0 -127 -31t-91 -84.5t-56 -110.5t-33 -124q-10 -53 -13.5 -105.5z" />
<glyph unicode="7" d="M127 0q75 338 271 718.5t452 651.5h-606l22 125h740l-23 -121q-107 -107 -233.5 -296t-214.5 -345q-97 -175 -159.5 -349t-115.5 -384h-133z" />
<glyph unicode="8" d="M43 412q13 67 31.5 119.5t51 105t84 96.5t122.5 78v4q-157 65 -109 326q30 165 134 274t264 109q88 0 148.5 -31t88 -84.5t35 -125.5t-9.5 -155q-19 -106 -73 -191t-146 -122v-4q108 -58 138 -158.5t7 -234.5q-16 -92 -46.5 -165t-64 -119t-78 -79t-80.5 -48.5t-81 -24 t-69.5 -10t-55.5 -1.5h-17q-152 -5 -230.5 118.5t-43.5 322.5zM168.5 326q-0.5 -47 9.5 -91.5t30.5 -77.5t58 -53.5t87.5 -21.5q75 0 133 28t95 78.5t59.5 108t34.5 127.5q57 321 -197 321q-111 0 -192 -81.5t-109 -239.5q-9 -51 -9.5 -98zM342 1114h4q-21 -113 16.5 -185.5 t145.5 -72.5q56 0 101 24.5t74 66.5t47 87.5t28 98.5q12 53 9 103.5t-17 89.5t-52.5 63t-97.5 24q-157 0 -228 -188q-15 -42 -27 -99z" />
<glyph unicode="9" d="M61 305h123q-10 -108 29 -165.5t143 -57.5q84 0 151.5 71t106.5 164q64 157 99 359h-4q-130 -146 -285 -146q-79 0 -136 31t-87 79.5t-44 113.5t-12.5 128t13.5 128q12 68 31.5 132.5t57.5 135.5t86.5 124t122.5 87.5t162 34.5q73 0 127 -25t86 -64t50 -98t23 -116 t1 -130t-11.5 -128t-19.5 -121q-6 -29 -18.5 -92.5t-21.5 -108t-25.5 -112.5t-32.5 -117.5t-41 -111t-52 -105.5t-65 -89t-80.5 -72.5t-98 -45t-117.5 -17.5q-142 2 -214.5 92.5t-46.5 241.5zM293 1018q-67 -377 172 -377q71 0 126.5 31t89.5 84.5t54.5 110t32.5 124.5 q13 70 14.5 135.5t-10.5 134t-56 110.5t-116 42q-56 0 -104.5 -27t-81 -68t-58.5 -96t-40 -104t-23 -100z" />
<glyph unicode=":" horiz-adv-x="454" d="M55 0l33 180h141l-32 -180h-142zM211 887l33 180h141l-33 -180h-141z" />
<glyph unicode=";" horiz-adv-x="454" d="M6 -279l14 76q13 5 24 14t19 17t15 22t11 22.5t8.5 26t6 24.5t5 26.5t4.5 23.5l4 27h-62l33 180h141l-20 -114q-11 -64 -31 -146q-23 -91 -61.5 -135.5t-110.5 -63.5zM211 887l33 180h141l-33 -180h-141z" />
<glyph unicode="&#x3c;" d="M16 457l17 90l917 479l-20 -115l-793 -399l-2 -10l651 -412l-20 -115z" />
<glyph unicode="=" d="M-12 268l18 105h825l-18 -105h-825zM51 633l19 104h825l-18 -104h-826z" />
<glyph unicode="&#x3e;" d="M-68 -23l21 115l792 400l3 10l-650 411l21 115l747 -481l-16 -90z" />
<glyph unicode="?" horiz-adv-x="796" d="M133 1098q8 59 25 115t50.5 116.5t79.5 105t116.5 73t156.5 28.5q69 0 126.5 -21.5t99.5 -66.5t57 -113.5t0 -163.5q-19 -102 -71.5 -194t-182.5 -227q-111 -114 -152.5 -188.5t-62.5 -211.5h-115q16 142 69 237t171 222q47 52 74.5 84.5t60.5 78.5t52 93t28 98 q21 118 -20.5 189t-141.5 71q-60 0 -107 -17.5t-77 -45.5t-52 -72.5t-34.5 -87.5t-22.5 -102h-127zM186 0l33 180h143l-32 -180h-144z" />
<glyph unicode="@" horiz-adv-x="1638" d="M88 776q29 163 119.5 311t218.5 255t288.5 170t323.5 63q138 0 258 -47t209 -137q189 -192 137 -490q-19 -100 -75.5 -209.5t-116.5 -177.5q-205 -231 -414 -231q-63 0 -105 29t-34 89q-132 -102 -293 -102q-131 0 -189 90t-34 225q19 108 75 219.5t136.5 204.5 t189.5 152t222 59q78 0 135.5 -36.5t77.5 -104.5l49 100h112l-327 -643q-2 -3 -5 -10q-10 -19 -14.5 -29t-13 -29.5t-11 -31t-5.5 -28t1 -26.5t11.5 -19.5t23 -14t37.5 -4.5q63 0 149 61.5t148 130.5q51 58 102.5 159.5t65.5 186.5q22 126 -11.5 234t-108 179.5t-180 112 t-226.5 40.5q-116 0 -230 -37.5t-211.5 -104.5t-177.5 -156t-134 -197t-75 -222q-25 -141 9 -270.5t113 -223t199.5 -149.5t260.5 -56q165 0 337.5 81t297.5 218h108q-132 -183 -339.5 -290t-419.5 -107q-168 0 -307 64t-227 173t-124 259t-6 317zM487 639 q-20 -114 26.5 -180t135.5 -66q103 0 183.5 52t119.5 126l166 324q25 48 28.5 96t-13 85t-55.5 59t-95 20q-80 0 -166.5 -53t-153.5 -132t-115 -168t-61 -163z" />
<glyph unicode="A" horiz-adv-x="1024" d="M-78 0l682 1536h154l141 -1536h-135l-37 473h-467l-209 -473h-129zM309 592h410l-66 776h-4z" />
<glyph unicode="B" horiz-adv-x="1024" d="M25 0l270 1536h336q214 0 293 -84q74 -75 73 -200q0 -43 -8 -91q-22 -124 -88.5 -216.5t-181.5 -133.5q123 -35 167 -131q28 -61 29 -140q0 -46 -10 -98q-14 -82 -41.5 -147t-62.5 -111t-84 -79.5t-99.5 -53.5t-116 -31.5t-127 -15.5t-138.5 -4h-211zM178 119h166 q94 0 161 14t123.5 49.5t91.5 100.5t52 161q8 45 8 83t-6 66.5t-20 51t-31.5 38.5t-43.5 27.5t-51.5 18t-60.5 10.5t-66.5 5t-72.5 1h-139zM309 864h137q89 0 151 11.5t117.5 42t90.5 89.5t51 150q6 36 6.5 66t-5.5 54t-15 43t-25 33t-32.5 24.5t-40 17.5t-45.5 11.5 t-52 6.5t-55.5 3t-59.5 1h-124z" />
<glyph unicode="C" horiz-adv-x="1138" d="M123 329q-2 25 -2 55q0 149 43 394q2 10 6 31v2q13 77 28 142t40.5 146t55.5 145t75 127.5t98.5 106t126.5 69t158 26.5q81 0 145 -25t104.5 -69t65.5 -104t27 -131q0 -12 1 -25q0 -60 -10 -125h-133q4 55 4 107t-15 98t-39.5 80.5t-69.5 54.5t-105 20q-75 0 -136 -29.5 t-105 -94t-73 -115.5t-54 -148.5t-33 -134t-24 -126.5q-4 -18 -5 -26q-38 -221 -43 -321q-1 -20 -1 -40q0 -336 247 -337q81 0 146.5 40.5t107.5 109.5t67.5 138.5t42.5 149.5h133q-13 -80 -41.5 -158.5t-75.5 -151t-106.5 -127t-139.5 -87.5t-169 -33q-319 0 -342 366z" />
<glyph unicode="D" horiz-adv-x="1138" d="M45 0l270 1536h275q77 0 128.5 -4t111.5 -17.5t106.5 -44t83.5 -79.5q38 -58 56 -151q17 -86 17 -169q-1 -7 -1 -14q-2 -90 -15 -172q-1 -6 -9.5 -52.5t-10.5 -59t-10.5 -56.5t-12.5 -61.5t-13.5 -58t-16 -62.5t-17 -57t-20.5 -59.5t-23 -53t-26 -52.5 q-52 -97 -111.5 -160t-133 -96t-148.5 -45t-179 -12h-301zM199 119h159q166 0 242 33q53 23 98 64.5t77.5 97.5t56.5 111t42.5 124t29 115.5t20.5 105.5q9 47 12.5 69.5t11 73t9.5 79.5q1 28 3 76q0 13 1 25q0 31 -3 53q-4 30 -12 70t-23 67.5t-37 54t-52 44.5 q-48 28 -138 35q-45 4 -83.5 3.5t-69.5 -3.5h-115z" />
<glyph unicode="E" d="M35 0l270 1536h696l-20 -119h-563l-99 -553h512l-20 -119h-512l-111 -626h574l-21 -119h-706z" />
<glyph unicode="F" d="M39 0l270 1536h707l-21 -119h-573l-98 -553h512l-21 -119h-512l-131 -745h-133z" />
<glyph unicode="G" horiz-adv-x="1138" d="M88 338q-2 22 -2 48q0 50 6 113q8 97 16.5 154.5t24.5 145.5q11 64 21 113.5t26.5 116t34.5 117.5t45.5 110t58 102.5t73 86t90.5 69t110 43t133 16.5q124 0 209 -63t117 -166q19 -61 19 -130q0 -47 -9 -98h-127q1 18 1 35q0 34 -3 64q-4 45 -18 91t-38 77.5t-66.5 51 t-100.5 19.5q-68 0 -126 -25.5t-100 -68.5t-75.5 -99.5t-56.5 -118.5t-40 -126t-28.5 -122t-19.5 -106q-2 -14 -3 -20q-8 -47 -13.5 -79.5t-12.5 -91t-9 -101.5q-1 -29 -1 -64v-36q1 -57 9.5 -98t25 -84.5t42 -70t65 -44t89.5 -17.5q60 0 111.5 20t88.5 52t69 80.5t52 94.5 t38.5 107t29 105.5t22.5 100.5v1h-329l22 119h463l-135 -762h-107l15 158q-77 -99 -167 -147t-204 -48q-89 0 -154.5 31.5t-102.5 78t-56 123.5t-23 142z" />
<glyph unicode="H" horiz-adv-x="1138" d="M37 0l270 1536h133l-114 -653h594l114 653h133l-270 -1536h-133l135 764h-594l-135 -764h-133z" />
<glyph unicode="I" horiz-adv-x="454" d="M59 0l271 1536h133l-270 -1536h-134z" />
<glyph unicode="J" horiz-adv-x="796" d="M-27 226q1 56 9 116l20 107h133l-6 -33q-6 -33 -9 -52.5t-7 -51.5t-4 -51.5t1.5 -46.5t8 -43.5t17.5 -35.5t27.5 -29t40.5 -17t54 -7q46 0 81 15.5t55.5 37.5t37 59.5t24 67t15.5 74.5l211 1200h133l-213 -1208q-14 -83 -41.5 -147.5t-71.5 -114.5t-110.5 -76.5 t-153.5 -26.5q-67 0 -116.5 20.5t-77 56t-43.5 83.5q-15 45 -15 97v6z" />
<glyph unicode="K" horiz-adv-x="1024" d="M35 0l270 1536h133l-135 -768l694 768h154l-563 -621l315 -915h-143l-279 807l-211 -225l-102 -582h-133z" />
<glyph unicode="L" d="M49 0l270 1536h134l-250 -1417h569l-20 -119h-703z" />
<glyph unicode="M" horiz-adv-x="1478" d="M47 0l270 1536h224l129 -1339h4l608 1339h217l-270 -1536h-133l247 1403h-4l-628 -1403h-142l-137 1403h-4l-248 -1403h-133z" />
<glyph unicode="N" horiz-adv-x="1138" d="M33 0l270 1536h166l334 -1319h4l231 1319h133l-270 -1536h-162l-338 1315h-4l-231 -1315h-133z" />
<glyph unicode="O" horiz-adv-x="1138" d="M112 338q-2 21 -1 46q0 50 6 118q9 102 17.5 157.5t25.5 151.5q13 77 28 142t40.5 146t55.5 145t75.5 127.5t99 106t126.5 69t158 26.5q73 0 131 -19t97 -47.5t65 -78t40 -94t18 -113.5q3 -54 2 -96v-23q-1 -50 -10.5 -127.5t-16.5 -121.5t-20 -118q-14 -85 -28 -149 t-39 -149t-54 -147t-74.5 -127t-100 -106t-130.5 -67.5t-166 -26.5q-92 0 -158.5 32t-105 77t-58 124t-23.5 142zM244 463q-1 -23 -1 -45q0 -335 246 -336q75 0 136.5 29.5t105.5 94.5t73 116.5t54.5 150t34 136.5t24.5 131q4 18 5 26q39 226 39 351v17q-10 319 -244 320 q-64 0 -119.5 -27t-94 -66.5t-73 -104t-55 -117t-40.5 -130.5t-28 -120.5t-20 -108.5q-38 -219 -43 -317z" />
<glyph unicode="P" horiz-adv-x="1024" d="M53 0l271 1536h272q89 0 157 -8t125 -26t92 -48t59 -75t25 -105q0 -5 1 -10q0 -56 -11 -129q-42 -231 -184 -334q-74 -55 -178 -81t-170 -26h-203l-123 -694h-133zM330 813h114q79 0 135.5 5.5t115.5 24.5t98.5 52t70.5 90t45 137q9 62 9 105t-16 75t-37.5 53.5t-58.5 35 t-78.5 19.5t-96.5 7h-195z" />
<glyph unicode="Q" horiz-adv-x="1138" d="M113 444q1 49 10.5 128t16.5 121t20 116q13 77 28 142t40.5 146.5t55.5 145.5t75.5 128t99 106.5t126.5 69t158 26.5q73 0 131 -19t97 -47.5t65 -78t40 -94t18 -113.5q2 -54 2 -96v-23q-1 -50 -10.5 -127.5t-16.5 -121.5t-20 -118q-16 -91 -31 -157.5t-40 -151 t-61 -156.5t-83 -129l143 -137l-86 -90l-146 139q-118 -90 -288 -90q-72 0 -128.5 19.5t-95 48.5t-63.5 80t-38.5 96t-16.5 116q-2 53 -2 94v27zM244 463q-1 -23 -1 -45q0 -335 246 -336q97 0 168 53l-135 125l90 92l133 -127q50 66 88 171.5t51.5 170.5t32.5 171q3 19 5 28 q39 226 39 351v17q-10 319 -244 320q-64 0 -119.5 -27t-94 -66.5t-73 -104t-55 -117t-40.5 -130.5t-28 -120.5t-20 -108.5q-38 -219 -43 -317z" />
<glyph unicode="R" horiz-adv-x="1024" d="M27 0l270 1536h297q111 0 190 -18t136.5 -61t77.5 -121q10 -39 9 -87q0 -49 -10 -106q-13 -80 -47.5 -153t-97.5 -132t-143 -76v-4q50 -13 82.5 -38.5t48.5 -56.5q18 -31 22 -78q2 -25 2 -49q0 -22 -2 -44q-4 -46 -14 -109q-1 -7 -10 -62t-14 -95.5t-8 -93.5 q-1 -14 -1 -26q1 -36 7 -62q8 -34 28 -46l-4 -18h-146q-10 36 -12 90v24q0 42 4 88q5 59 11 111.5t14 108.5t10 82q2 20 2 38q0 36 -9 64q-14 42 -38.5 64t-70 34.5t-85.5 15.5t-102 3h-137l-127 -723h-133zM307 842h234q21 0 47 3.5t71.5 20.5t83 45.5t72.5 86.5t49 135 q9 50 9 91q1 90 -43 132q-62 61 -228 61h-192z" />
<glyph unicode="S" horiz-adv-x="1024" d="M55 434h131q-11 -50 -11 -96q0 -20 2 -40q7 -64 31 -112t76.5 -76t129.5 -28q140 0 239 83.5t125 225.5q6 34 6 64t-3.5 53t-15 44.5t-22 37t-31 31t-35.5 25.5t-42 23t-44 20t-48.5 20t-48.5 20q-39 17 -69.5 32t-61.5 33.5t-54 38.5t-44 44.5t-33 52.5t-20 61 q-7 31 -8 68q0 42 9 90q33 190 160.5 307t312.5 117q180 0 268 -113q62 -80 63 -194q0 -48 -11 -101h-129q10 44 10 83q1 74 -37 126q-58 80 -186 80q-126 0 -209.5 -83t-106.5 -214q-8 -45 -8 -81q0 -54 18 -88q30 -56 127 -101l111 -49q51 -23 76.5 -35t67 -34t61.5 -39 t48.5 -43.5t39.5 -54t22 -63.5q10 -33 10 -72v-7q-1 -44 -10 -95q-35 -198 -175 -315t-341 -117q-205 1 -293 131q-60 89 -60 215q0 58 13 125z" />
<glyph unicode="T" d="M188 1417l21 119h829l-20 -119h-348l-250 -1417h-133l250 1417h-349z" />
<glyph unicode="U" horiz-adv-x="1138" d="M119 406l198 1130h134l-197 -1114q-13 -77 -13 -137q1 -25 3 -47q8 -76 63.5 -116t167.5 -40q87 0 151 25t103.5 74.5t62.5 109.5t37 143l195 1102h133l-188 -1069q-17 -94 -41.5 -167.5t-65.5 -138.5t-95.5 -107.5t-132 -66.5t-175.5 -24q-216 0 -297 113 q-55 77 -55 202q0 59 12 128z" />
<glyph unicode="V" horiz-adv-x="1024" d="M197 1536h139l104 -1362h4l592 1362h129l-678 -1536h-149z" />
<glyph unicode="W" horiz-adv-x="1478" d="M203 1536h135l6 -1296h4l479 1296h154l23 -1303h4l475 1303h129l-574 -1536h-149l-25 1315h-4l-481 -1315h-150z" />
<glyph unicode="X" horiz-adv-x="1024" d="M-66 0l535 793l-246 743h150l196 -616l422 616h148l-512 -743l258 -793h-146l-215 668l-446 -668h-144z" />
<glyph unicode="Y" horiz-adv-x="1024" d="M207 1536h147l195 -731l467 731h139l-565 -883l-115 -653h-133l115 653z" />
<glyph unicode="Z" d="M-33 0l23 123l856 1294h-600l20 119h744l-21 -115l-862 -1302h633l-21 -119h-772z" />
<glyph unicode="[" horiz-adv-x="569" d="M12 -213l314 1786h313l-16 -94h-195l-281 -1598h199l-16 -94h-318z" />
<glyph unicode="\" horiz-adv-x="454" d="M86 1536h111l237 -1536h-110z" />
<glyph unicode="]" horiz-adv-x="569" d="M-39 -213l16 94h199l281 1598h-195l17 94h313l-313 -1786h-318z" />
<glyph unicode="^" d="M156 696l424 840h84l129 -840h-97l-104 686l-340 -686h-96z" />
<glyph unicode="_" horiz-adv-x="1024" d="M-145 -244l20 119h1024l-20 -119h-1024z" />
<glyph unicode="`" horiz-adv-x="681" d="M248 1526h160l178 -285h-105z" />
<glyph unicode="a" horiz-adv-x="796" d="M-8 166q-1 12 -1 24q0 48 11 101q18 104 66 175.5t141 115.5q54 23 165.5 63t166.5 64q14 6 25 19.5t14 25.5q11 34 19.5 92t8.5 96q-3 55 -35 84t-106 29q-27 0 -50.5 -3.5t-41.5 -12t-32 -16t-26 -23t-19.5 -25.5t-16 -31t-12.5 -31t-12 -34l-11 -33h-115 q22 149 115 231t241 82q165 0 218 -86q28 -44 29 -105v-8q0 -57 -13 -108l-121 -694q-4 -22 -4 -37q0 -19 7 -27q10 -12 52 -12h13l-15 -86q-34 -12 -73 -12q-28 0 -60 6q-10 4 -17.5 8.5t-12.5 11.5t-7.5 11.5t-4 15t-2 15t-1 19.5t-0.5 21h-2q-109 -121 -270 -121 q-75 0 -123 25t-66 68.5t-22 101.5zM117 272q-5 -33 -5 -61q0 -50 17 -83q27 -52 113 -52q108 0 182 84q72 85 100 252l37 198q-38 -19 -80.5 -36.5t-96 -37.5t-77.5 -30q-97 -39 -134 -86t-56 -148z" />
<glyph unicode="b" d="M29 0l270 1536h119l-88 -498h4q130 121 276 121q59 0 103.5 -22t70.5 -57t41.5 -86t19.5 -102q2 -29 2 -62q0 -24 -1 -50q-3 -62 -9 -110t-16 -101q-11 -59 -21 -105.5t-29 -111.5t-41 -114.5t-55.5 -102t-73 -86.5t-93.5 -56t-117 -22q-168 0 -221 135h-4l-19 -106h-118 zM218 322v-6q0 -240 163 -240q48 0 89 19.5t70 47t54.5 74t40.5 84.5t29.5 94.5t20.5 86.5t15 79q7 37 11.5 66t10.5 75.5t6 83t-2.5 79.5t-14 74.5t-29.5 59t-49 42t-72 14.5q-47 0 -88 -19t-69 -46t-53 -73t-39 -81.5t-28.5 -91.5t-19.5 -83t-14 -75q-31 -180 -32 -264z " />
<glyph unicode="c" horiz-adv-x="796" d="M43 250q0 22 -0.5 42t0.5 37q1 35 7 82.5t11 81t13 78.5q11 61 22 110.5t30.5 112.5t42 111.5t57 98t75 82t96.5 53t121 20.5q98 0 160 -52t82 -133q10 -42 10 -88q0 -43 -8 -89h-117q4 31 4 59q1 73 -27 127q-37 72 -123 72h-7q-51 -1 -92.5 -21t-72.5 -68t-50.5 -79.5 t-39 -107.5t-24 -97.5t-19.5 -100.5l-6 -30q-27 -154 -27 -244q0 -22 2 -40q16 -191 171 -191q27 0 51 6.5t42.5 15.5t36 27.5t29 32t24 40.5t19 41.5t16.5 46.5t13.5 44t12.5 45h118q-14 -83 -42 -152t-73 -127.5t-113.5 -91.5t-154.5 -33q-49 0 -88.5 9.5t-68 29t-50 43 t-34 57t-20.5 65t-9 75.5z" />
<glyph unicode="d" d="M60 352q4 64 11 112t17 105t21 104.5t30 111t41.5 113t56.5 100.5t73.5 84.5t94 55t117.5 21.5q68 0 125.5 -32t91.5 -89h4l88 498h119l-270 -1536h-119l19 106h-5q-92 -135 -266 -135q-63 0 -110 22t-74.5 56.5t-42.5 86.5q-16 52 -20 102q-3 28 -3 61q-1 25 1 53z M180 354q-1 -18 -2 -34q0 -38 6 -70q8 -44 25 -86t54.5 -65t90.5 -23q35 0 67 11.5t56 28.5t46.5 47t38 56.5t30.5 67.5t24 69.5t19 73t14 67.5t11.5 64.5t9.5 52.5q7 41 11.5 73.5t8.5 80.5q2 28 2 52q0 16 -2 32q-2 36 -12 76.5t-28.5 66.5t-51.5 43t-78 17q-46 0 -87 -21 t-69.5 -51.5t-54 -79.5t-41 -90t-30 -99t-21 -89.5t-14.5 -77.5q-9 -50 -14 -91.5t-9 -101.5z" />
<glyph unicode="e" horiz-adv-x="796" d="M40 343q4 65 10.5 111t17.5 107t20.5 105.5t28.5 111t40 115t55 101.5t73.5 87t95 56t119.5 22q76 0 129 -29t80 -75t38 -110q9 -50 8 -100v-27q-3 -62 -16 -132l-20 -115h-531q-27 -159 -31 -209q-3 -32 -3 -61q0 -225 161 -225q48 0 87 18.5t63 44.5t45 70t31.5 76.5 t23.5 83.5h115q-14 -81 -43.5 -150t-75.5 -126t-114 -89.5t-152 -32.5q-65 0 -113.5 21.5t-77 54t-44.5 83.5q-16 52 -20 100q-2 25 -2 56q0 26 2 57zM207 676h411q18 96 18 168q0 211 -157 211q-201 0 -272 -379z" />
<glyph unicode="f" horiz-adv-x="454" d="M55 0l181 1026h-121l18 104h121l22 123q10 58 20.5 97t26.5 74t38 56t54 35.5t75 18.5q25 3 56 3q21 0 44 -1l-19 -104q-36 1 -61 -0.5t-43 -10t-28 -16.5t-17.5 -28t-11 -36t-9.5 -48q-4 -21 -6 -33l-22 -130h141l-18 -104h-142l-180 -1026h-119z" />
<glyph unicode="g" d="M-6 -131h121q-1 -10 -1 -20q0 -57 42 -91q49 -38 127 -41q40 0 73.5 6.5t58.5 21.5t45 30.5t35 41.5t25 46t19 53.5t13.5 53.5t11.5 56.5t11 53.5h-8q-104 -109 -256 -109q-50 0 -90 12.5t-67 33.5t-46 53t-29.5 65.5t-14.5 78.5q-5 40 -5 75q0 4 1 8q0 39 5 88t11 85.5 t14 82.5q10 59 19 102.5t27.5 111t38.5 116.5t53.5 104t72 90t93.5 58.5t118 23.5q85 0 138 -31.5t89 -99.5h4l17 102h119l-195 -1105q-17 -96 -47.5 -168.5t-79.5 -129t-123.5 -85.5t-171.5 -29q-131 0 -208 65q-63 53 -63 146q0 21 3 45zM183 298q2 -39 11 -83.5t28 -72.5 t53 -47t81 -19q45 0 83.5 19t65.5 45.5t51 71.5t38 80t28 89.5t19.5 81.5t13.5 74q31 171 36 224q3 34 3 64q0 197 -132 225q-23 5 -50 5q-217 0 -303 -502q-8 -45 -13 -77.5t-10 -85.5q-4 -39 -4 -69q0 -13 1 -23z" />
<glyph unicode="h" d="M27 0l270 1536h119l-88 -506q102 122 268 129q12 1 24 1q58 0 108 -20q60 -24 87 -79q17 -29 21 -71q2 -22 2 -42q0 -18 -2 -34q-4 -35 -10 -79q-2 -11 -3 -16l-145 -819h-119l141 797q8 46 11 78q1 15 1 31q0 18 -2 38q-4 37 -17.5 59t-44 37t-77.5 15q-79 0 -148 -45.5 t-122 -122.5l-156 -887h-118z" />
<glyph unicode="i" horiz-adv-x="454" d="M66 0l198 1130h119l-199 -1130h-118zM293 1341l35 195h137l-35 -195h-137z" />
<glyph unicode="j" horiz-adv-x="454" d="M-127 -387l18 111h4q21 0 74 8q20 7 35.5 21t23.5 27.5t14.5 37t8.5 35t6 36.5l219 1241h119l-219 -1245q-8 -45 -12 -64t-15 -55t-29 -61t-44 -47q-76 -45 -203 -45zM305 1348l33 188h137l-33 -188h-137z" />
<glyph unicode="k" horiz-adv-x="796" d="M25 0l270 1536h119l-166 -938l461 532h149l-381 -421l189 -709h-125l-168 588l-156 -174l-74 -414h-118z" />
<glyph unicode="l" horiz-adv-x="454" d="M66 0l270 1536h119l-271 -1536h-118z" />
<glyph unicode="m" horiz-adv-x="1366" d="M16 0l199 1130h119l-17 -100h5q47 61 117 95t145 34q41 0 66.5 -3.5t55.5 -15t52.5 -38.5t40.5 -70h4q55 63 131 95t158 32q98 0 150 -40q53 -41 61 -109q3 -24 3 -50q0 -50 -10 -108l-149 -852h-119l154 866q5 27 5 52q-1 48 -19 84q-28 55 -109 55q-104 0 -179 -63 t-94 -169l-145 -825h-119l144 817q8 44 11 74t-1 63.5t-18 54t-43 33.5t-74 13q-74 0 -157.5 -60.5t-96.5 -132.5l-152 -862h-119z" />
<glyph unicode="n" d="M31 0l198 1130h119l-18 -110h4q119 139 280 139q112 0 175 -71q47 -53 47 -134q0 -27 -5 -57l-157 -897h-119l145 821q7 37 9.5 62.5t3 55t-7.5 48.5t-23 35.5t-42 24.5t-65 8q-92 0 -176.5 -64t-101.5 -157l-147 -834h-119z" />
<glyph unicode="o" d="M68 314q0 40 6.5 95t12 92.5t15.5 90.5q11 60 23.5 112t33 111t45 107t60.5 93.5t78 76t98 49t121 18.5q66 0 115.5 -20t80 -53t48.5 -82q19 -49 25 -98q5 -37 4 -83v-29q-2 -63 -8.5 -114t-16.5 -111q-11 -63 -22.5 -114.5t-32 -115.5t-44 -113.5t-59.5 -99t-78.5 -82 t-100.5 -53t-126 -20.5q-56 0 -100.5 13.5t-75 34.5t-51 55.5t-32.5 68.5q-12 35 -16 83q-4 43 -4 79q1 5 1 9zM187 310q2 -234 175 -234q44 0 81.5 13t67 40.5t52.5 56t41.5 73.5t31 77t24.5 83.5t17 76.5t13 71q7 38 11 63.5t9 68.5t6 73v26v44q-2 40 -9.5 68t-21.5 57 t-34.5 47t-51.5 29.5t-71 11.5q-227 0 -307 -465q-34 -185 -34 -275v-5z" />
<glyph unicode="p" d="M-51 -389l266 1519h119l-17 -102q114 131 252 131q64 0 112.5 -19t78 -50t47 -77.5t23.5 -93.5q4 -35 4 -78v-29q-2 -61 -8.5 -110t-16.5 -108q-39 -225 -81 -334q-111 -288 -357 -289q-150 0 -215 121l-84 -481h-123zM203 306q0 -230 176 -230q36 0 68.5 12.5t57 30 t47 49.5t37.5 57.5t30 69t23 68.5t18.5 72t13.5 63t10 57q6 33 9 52t9 58.5t7.5 66t3.5 65.5q1 13 1 25q0 23 -3 41q-4 27 -9.5 59.5t-18 54t-29 40.5t-42 28.5t-57.5 9.5q-56 0 -102 -20.5t-77 -59t-54 -81t-38 -98.5t-24.5 -99.5t-18.5 -95.5q-3 -20 -5 -30 q-33 -181 -33 -265z" />
<glyph unicode="q" d="M60 225q-2 23 -2 51t2 62q5 66 12 111.5t18 109.5q9 50 16.5 87t20.5 89t27 91t34.5 85.5t43.5 80t55 67t68 54t82.5 33.5t99.5 13q134 0 206 -131l17 102h119l-267 -1517h-123l84 479q-103 -121 -256 -121q-66 0 -115 21t-77.5 52.5t-44 83t-20.5 97.5zM209 555 q-25 -135 -25 -232q0 -247 162 -247q47 0 87.5 19t68 40.5t53.5 71t38.5 76t29 92.5t19.5 83t15 83q3 18 5 26q31 178 31 259q-1 229 -167 229q-38 0 -71.5 -13t-59 -30.5t-49 -51t-39 -59t-31 -71.5t-24 -71.5t-19 -75t-13.5 -67t-11 -61.5z" />
<glyph unicode="r" horiz-adv-x="569" d="M39 0l199 1130h112l-22 -131h4q58 88 128 125q66 35 159 35h10l-23 -125h-10q-126 0 -203 -76q-80 -78 -104 -217l-131 -741h-119z" />
<glyph unicode="s" horiz-adv-x="796" d="M16 307h121q-2 -24 -2 -45q0 -186 180 -186q91 0 153.5 60.5t78.5 152.5q4 22 4 43q0 35 -12 65q-19 47 -57.5 78t-87 57.5t-97.5 53.5t-88.5 58.5t-60.5 79.5q-15 35 -15 77q0 16 2 33q12 154 102.5 239.5t245.5 85.5q145 0 211 -85q47 -61 47 -153q0 -37 -8 -79h-117 q4 25 4 47q0 63 -30 107q-40 60 -129 59q-83 0 -134.5 -48t-66.5 -133q-2 -15 -2 -29q0 -96 109 -143q37 -18 61 -30.5t56 -31.5t52.5 -34t44.5 -36.5t38.5 -42.5t28 -48t18.5 -56t5 -64.5t-7 -75.5q-26 -149 -125.5 -230.5t-249.5 -81.5q-165 1 -233 87q-49 61 -48 161 q0 41 8 88z" />
<glyph unicode="t" horiz-adv-x="454" d="M66 55q-9 22 -9 52q0 32 9 73l147 846h-102l18 104h102l60 332h119l-60 -332h158l-19 -104h-157l-146 -833q-5 -24 -5 -43q0 -56 44 -64q16 -7 39 -6q26 0 62 8l-19 -98q-71 -10 -112 -10q-27 0 -41 4q-70 27 -88 71z" />
<glyph unicode="u" d="M60 170v18q0 51 12 107l147 835h119l-150 -856q-7 -38 -7 -69q0 -57 25 -88q34 -42 120 -42q13 0 26 1q67 3 137.5 60t112.5 134l152 860h118l-198 -1130h-115l19 104q-127 -133 -312 -133q-75 0 -122 26t-64.5 70t-19.5 103z" />
<glyph unicode="v" horiz-adv-x="796" d="M131 1130h127l78 -915h4l399 915h121l-498 -1130h-129z" />
<glyph unicode="w" horiz-adv-x="1138" d="M119 1130h119l26 -901h4l332 901h131l21 -901h4l340 901h116l-444 -1130h-125l-18 887h-4l-330 -887h-131z" />
<glyph unicode="x" horiz-adv-x="796" d="M-76 0l402 592l-183 538h133l140 -436l295 436h137l-377 -538l197 -592h-133l-158 479l-324 -479h-129z" />
<glyph unicode="y" horiz-adv-x="796" d="M-113 -385l19 104q39 -1 76 -2h5q35 0 73 17q39 17 63 55q54 92 102 207l-94 1134h125l74 -915h4l405 915h121l-504 -1116q-2 -5 -17 -41t-20.5 -47.5t-21 -45.5t-24.5 -50t-25 -45t-30 -46t-31 -38t-35.5 -36.5t-38.5 -26.5q-41 -21 -81 -26q-21 -4 -46 -4q-21 0 -44 2 q-51 5 -55 5z" />
<glyph unicode="z" horiz-adv-x="681" d="M-66 0l21 113l633 913h-449l19 104h573l-18 -110l-631 -916h479l-18 -104h-609z" />
<glyph unicode="{" horiz-adv-x="718" d="M117 688l2 4q73 19 117 49q25 18 41.5 37t26 46.5t13 43.5t9.5 54l61 344q21 118 58 183.5t107.5 96.5t188.5 27v-4q-103 -40 -146 -93.5t-58 -136.5l-64 -362q-10 -58 -23.5 -97t-38.5 -78t-67 -65.5t-104 -44.5l-2 -4q105 -19 133 -80t6 -176l-68 -389q-15 -84 8 -135 t115 -94v-4q-52 0 -79.5 2t-66.5 14t-69 37q-29 25 -40 64t-9 72t10 83l68 387q11 44 9.5 83t-24.5 75q-40 55 -114 61z" />
<glyph unicode="|" horiz-adv-x="454" d="M72 0l270 1536h107l-271 -1536h-106z" />
<glyph unicode="}" horiz-adv-x="718" d="M16 -186q103 40 146.5 93t58.5 136l64 363q10 58 23.5 97t38.5 77.5t67 65t104 44.5l2 4q-105 19 -133 80t-6 176l68 389q15 85 -8 136t-115 94v4q52 0 79.5 -2t66.5 -14t69 -37q29 -25 40 -64t9 -72.5t-10 -83.5l-68 -387q-11 -44 -10 -82.5t24 -74.5q41 -56 115 -62 l-2 -4q-73 -19 -117 -49q-25 -18 -41.5 -37t-26 -46.5t-13 -43t-9.5 -53.5l-61 -344q-21 -118 -58.5 -183.5t-108 -96.5t-188.5 -27v4z" />
<glyph unicode="~" d="M18 438q63 80 125.5 128t139.5 48q70 0 182 -53q120 -53 160 -53q87 0 184 125l55 -70q-127 -166 -260 -166q-21 0 -53 8.5t-53 16t-59.5 23.5t-43.5 18q-6 2 -30 12t-35 14t-31 8.5t-37 4.5q-30 0 -56.5 -10.5t-54.5 -37.5t-37.5 -38.5t-39.5 -48.5z" />
<glyph unicode="&#xa7;" d="M41 47h111q-23 -119 20.5 -187.5t142.5 -68.5t163 59.5t77 139.5q24 128 -88 221l-272 240q-73 63 -101 128.5t-14 157.5q19 99 81 166.5t169 128.5q-49 68 -64.5 121t-1.5 135q10 60 46.5 116t90.5 97q58 43 108 57.5t122 14.5q99 0 163.5 -47.5t88 -124.5t10.5 -174 h-113q8 69 -3 123t-52 92.5t-111 38.5q-88 0 -149 -45.5t-82 -132.5q-22 -82 2.5 -139.5t89.5 -106.5l203 -156q209 -162 172 -366q-16 -89 -82.5 -163t-161.5 -126q44 -45 61 -109.5t5 -134.5q-24 -138 -126.5 -220.5t-242.5 -82.5q-152 0 -222 97t-40 251zM184 743 q-13 -74 8.5 -119.5t79.5 -91.5l277 -223q73 31 129.5 91t69.5 130q14 80 -16 134t-97 110l-246 203q-78 -32 -135 -94.5t-70 -139.5z" />
<glyph unicode="&#xa9;" horiz-adv-x="1638" d="M68 770q38 217 176.5 402.5t339 294t413.5 108.5q212 0 373 -108.5t232.5 -293.5t33.5 -403q-38 -219 -175.5 -405t-336 -294t-411.5 -108q-160 0 -294.5 64t-220.5 172t-122.5 257.5t-7.5 313.5zM166 770q-34 -193 29 -357t205 -259t329 -95q140 0 276.5 56.5t245 151.5 t186 226.5t103.5 276.5q34 192 -29 355t-204.5 257.5t-327.5 94.5q-187 0 -362 -94.5t-296 -257.5t-155 -355zM457 776q36 203 175 333t335 130q143 0 229.5 -81t85.5 -222h-113q-1 93 -62 151t-155 58q-150 0 -252 -104.5t-129 -262.5q-18 -98 4 -181.5t87 -136t163 -52.5 q95 0 177 59t112 156h113q-40 -139 -159.5 -225.5t-258.5 -86.5q-128 0 -217 61.5t-123.5 167t-11.5 236.5z" />
<glyph unicode="&#xab;" horiz-adv-x="1024" d="M154 483l24 144l328 217l-23 -123l-235 -166l178 -162l-23 -127zM537 483l24 144l328 217l-23 -123l-237 -166l180 -162l-23 -127z" />
<glyph unicode="&#xac;" d="M51 633l19 104h825l-96 -547h-105l78 443h-721z" />
<glyph unicode="&#xad;" horiz-adv-x="681" d="M66 551l22 119h530l-22 -119h-530z" />
<glyph unicode="&#xae;" horiz-adv-x="1638" d="M68 770q38 217 176.5 402.5t339 294t413.5 108.5q212 0 373 -108.5t232.5 -293.5t33.5 -403q-38 -219 -175.5 -405t-336 -294t-411.5 -108q-160 0 -294.5 64t-220.5 172t-122.5 257.5t-7.5 313.5zM166 770q-34 -193 29 -357t205 -259t329 -95q140 0 276.5 56.5t245 151.5 t186 226.5t103.5 276.5q34 192 -29 355t-204.5 257.5t-327.5 94.5q-187 0 -362 -94.5t-296 -257.5t-155 -355zM485 319l158 902h381q142 0 205 -45q43 -28 58.5 -81.5t4.5 -113.5q-22 -125 -106.5 -184t-212.5 -62l192 -416h-127l-178 416h-196l-72 -416h-107zM680 821h164 q10 0 38 -0.5t42 -0.5t41.5 1.5t43 4t39.5 8t39 13.5t33.5 20.5t29.5 28.5t21 38t15 49q7 40 -1.5 69.5t-26.5 45.5t-48.5 26t-59 12.5t-65.5 2.5h-250z" />
<glyph unicode="&#xb0;" horiz-adv-x="819" d="M215 1217q20 126 126 216.5t234 90.5q126 0 201 -90.5t53 -216.5q-23 -127 -129.5 -217.5t-232.5 -90.5q-128 0 -201.5 90.5t-50.5 217.5zM297 1217q-17 -94 36.5 -160t147.5 -66q93 0 171.5 66.5t95.5 159.5q15 93 -40.5 159t-148.5 66t-171 -66.5t-91 -158.5z" />
<glyph unicode="&#xb1;" d="M-59 0l18 104h825l-18 -104h-825zM39 553l18 104h361l59 347h105l-60 -347h361l-19 -104h-360l-62 -348h-104l61 348h-360z" />
<glyph unicode="&#xb5;" d="M-47 -387l266 1517h119l-150 -856q-21 -109 18 -157t146 -41q67 3 137.5 60t112.5 134l152 860h118l-198 -1130h-115l19 104q-127 -133 -312 -133q-78 0 -123 49l-71 -407h-119z" />
<glyph unicode="&#xb6;" horiz-adv-x="1155" d="M207 1139q18 104 62 180.5t109.5 123t145.5 69t176 24.5h375l-311 -1774h-119l287 1637h-201l-287 -1637h-118l174 988q-155 -1 -238 113.5t-55 275.5z" />
<glyph unicode="&#xb7;" horiz-adv-x="454" d="M127 412l33 180h141l-33 -180h-141z" />
<glyph unicode="&#xbb;" horiz-adv-x="1024" d="M127 266l23 127l237 162l-180 166l22 123l250 -217l-24 -144zM510 266l22 127l236 162l-178 166l22 123l250 -217l-24 -144z" />
<glyph unicode="&#x401;" d="M35 0l270 1536h696l-20 -119h-563l-99 -553h512l-20 -119h-512l-111 -626h574l-21 -119h-706zM422 1669l37 209h131l-37 -209h-131zM745 1669l37 209h131l-36 -209h-132z" />
<glyph unicode="&#x402;" horiz-adv-x="1327" d="M188 1417l21 119h829l-20 -119h-348l-99 -563q205 119 398 119q129 0 203.5 -90t48.5 -230l-58 -325q-29 -166 -137 -265.5t-281 -99.5h-55l21 119h55q75 0 134 39.5t90 95t42 119.5l51 289q20 113 -24 173t-144 60q-172 0 -366 -123l-129 -735h-133l250 1417h-349z" />
<glyph unicode="&#x403;" d="M39 0l270 1536h707l-21 -119h-573l-250 -1417h-133zM516 1647l277 284h159l-331 -284h-105z" />
<glyph unicode="&#x404;" horiz-adv-x="1138" d="M123 329q-10 155 41 449q2 10 6 31v2q13 77 28 142t40.5 146t55.5 145t75 127.5t98.5 106t126.5 69t158 26.5q81 0 145 -25t104.5 -69t65.5 -104t27.5 -131t-9.5 -150h-133q4 55 4 107t-15 98t-39.5 80.5t-69.5 54.5t-105 20q-59 0 -110.5 -21.5t-89 -55t-70.5 -85 t-54 -100.5t-40.5 -112.5t-30 -110.5t-21.5 -105h484l-21 -119h-483q-9 -54 -14.5 -88t-13 -93.5t-9 -100t0.5 -95t11 -91.5t27 -76.5t45.5 -63.5t68.5 -39.5t93 -15.5q81 0 146.5 40.5t107.5 109.5t67.5 138.5t42.5 149.5h133q-13 -80 -41.5 -158.5t-75.5 -151t-106.5 -127 t-139.5 -87.5t-169 -33q-319 0 -342 366z" />
<glyph unicode="&#x405;" horiz-adv-x="1024" d="M55 434h131q-16 -72 -9 -136t31 -112t76.5 -76t129.5 -28q140 0 239 83.5t125 225.5q6 34 6 64t-3.5 53t-15 44.5t-22 37t-31 31t-35.5 25.5t-42 23t-44 20t-48.5 20t-48.5 20q-39 17 -69.5 32t-61.5 33.5t-54 38.5t-44 44.5t-33.5 52.5t-20 61t-7 73t8.5 85 q33 190 160.5 307t312.5 117q180 0 268.5 -113t51.5 -295h-129q30 129 -27.5 209t-185.5 80q-126 0 -209.5 -83t-106.5 -214q-20 -112 10 -168.5t127 -101.5l111 -49q51 -23 76.5 -35t67 -34t61.5 -39t48.5 -43.5t39.5 -54t22 -63.5t10 -79.5t-10 -94.5q-35 -198 -175 -315 t-341 -117q-205 0 -293 130.5t-47 340.5z" />
<glyph unicode="&#x406;" horiz-adv-x="454" d="M59 0l271 1536h133l-270 -1536h-134z" />
<glyph unicode="&#x407;" horiz-adv-x="454" d="M59 0l271 1536h133l-270 -1536h-134zM195 1669l36 209h131l-36 -209h-131zM518 1669l37 209h131l-37 -209h-131z" />
<glyph unicode="&#x408;" horiz-adv-x="796" d="M-27 226.5q1 55.5 9 115.5l20 107h133l-6 -33q-6 -33 -9 -52.5t-7 -51.5t-4 -51.5t1.5 -46.5t8 -43.5t17.5 -35.5t27.5 -29t40.5 -17t54 -7q46 0 81 15.5t55.5 37.5t37 59.5t24 67t15.5 74.5l211 1200h133l-213 -1208q-14 -83 -41.5 -147.5t-71.5 -114.5t-110.5 -76.5 t-153.5 -26.5q-67 0 -116.5 20.5t-77 56t-43.5 83.5t-15 103.5z" />
<glyph unicode="&#x409;" horiz-adv-x="1742" d="M-51 -37l22 131q42 0 74 13.5t55 40t40.5 64.5t31 90t25.5 112.5t26 136.5v2l172 983h772l-118 -672h141q67 0 122.5 -4.5t104.5 -14.5t86.5 -26t67.5 -39.5t49 -55t29 -71.5t9.5 -90t-11.5 -110q-42 -237 -191 -344q-76 -57 -180.5 -83t-171.5 -26h-340l250 1417h-506 l-156 -885q-39 -223 -74 -317q-67 -184 -205 -233q-55 -19 -124 -19zM918 119h116q67 0 117 4t103 15.5t91.5 34t73 57.5t57.5 87.5t35 122.5q9 60 9 106t-16 80t-39 56.5t-60 36.5t-80 20t-98 6h-199z" />
<glyph unicode="&#x40a;" horiz-adv-x="1742" d="M37 0l270 1536h133l-114 -653h594l114 653h133l-118 -672h141q67 0 122.5 -4.5t104.5 -14.5t86.5 -26t67.5 -39.5t49 -55t29 -71.5t9.5 -90t-11.5 -110q-42 -237 -191 -344q-76 -57 -180.5 -83t-171.5 -26h-340l135 764h-594l-135 -764h-133zM918 119h116q67 0 117 4 t103 15.5t91.5 34t73 57.5t57.5 87.5t35 122.5q9 60 9 106t-16 80t-39 56.5t-60 36.5t-80 20t-98 6h-199z" />
<glyph unicode="&#x40b;" horiz-adv-x="1327" d="M188 1417l21 119h829l-20 -119h-348l-99 -563q205 119 398 119q129 0 203.5 -90t48.5 -230l-115 -653h-133l110 625q20 113 -24 173t-144 60q-172 0 -366 -123l-129 -735h-133l250 1417h-349z" />
<glyph unicode="&#x40c;" horiz-adv-x="1024" d="M35 0l270 1536h133l-135 -768l694 768h154l-563 -621l315 -915h-143l-279 807l-211 -225l-102 -582h-133zM573 1647l277 284h160l-332 -284h-105z" />
<glyph unicode="&#x40e;" horiz-adv-x="1024" d="M92 -31l23 125q40 -4 75 -4q48 0 89 27.5t83 103.5l101 174l-277 1141h148l219 -969l483 969h140l-664 -1288q-33 -64 -60.5 -107.5t-66.5 -88t-87 -67t-105 -22.5q-14 0 -101 6zM451 1878h81q-1 -81 49.5 -123.5t135.5 -42.5q84 0 150.5 42.5t97.5 123.5h75 q-34 -125 -128 -191.5t-222 -66.5q-121 0 -184.5 69t-54.5 189z" />
<glyph unicode="&#x40f;" horiz-adv-x="1138" d="M37 0l270 1536h133l-250 -1417h594l250 1417h133l-270 -1536h-362l-39 -221h-134l39 221h-364z" />
<glyph unicode="&#x410;" horiz-adv-x="1024" d="M-78 0l682 1536h154l141 -1536h-135l-37 473h-467l-209 -473h-129zM309 592h410l-66 776h-4z" />
<glyph unicode="&#x411;" horiz-adv-x="1024" d="M39 0l270 1536h707l-21 -119h-573l-98 -553h141q67 0 122.5 -4.5t104.5 -14.5t86.5 -26t67.5 -39.5t49 -55t29 -71.5t9.5 -90t-11.5 -110q-42 -237 -191 -344q-76 -57 -180.5 -83t-171.5 -26h-340zM193 119h116q67 0 117 4t103 15.5t91.5 34t73 57.5t57.5 87.5t35 122.5 q9 60 9 106t-16 80t-39 56.5t-60 36.5t-80 20t-98 6h-199z" />
<glyph unicode="&#x412;" horiz-adv-x="1024" d="M25 0l270 1536h336q214 0 293 -84q99 -101 65 -291q-22 -124 -88.5 -216.5t-181.5 -133.5q123 -35 167.5 -131.5t18.5 -237.5q-14 -82 -41.5 -147t-62.5 -111t-84 -79.5t-99.5 -53.5t-116 -31.5t-127 -15.5t-138.5 -4h-211zM178 119h166q94 0 161 14t123.5 49.5 t91.5 100.5t52 161q8 45 8 83t-6 66.5t-20 51t-31.5 38.5t-43.5 27.5t-51.5 18t-60.5 10.5t-66.5 5t-72.5 1h-139zM309 864h137q89 0 151 11.5t117.5 42t90.5 89.5t51 150q6 36 6.5 66t-5.5 54t-15 43t-25 33t-32.5 24.5t-40 17.5t-45.5 11.5t-52 6.5t-55.5 3t-59.5 1h-124z " />
<glyph unicode="&#x413;" d="M39 0l270 1536h707l-21 -119h-573l-250 -1417h-133z" />
<glyph unicode="&#x414;" horiz-adv-x="1138" d="M-106 -221l59 340h92q64 39 104.5 144t73.5 290l172 983h772l-249 -1417h96l-60 -340h-133l39 221h-794l-39 -221h-133zM201 119h583l230 1298h-506l-156 -885q-52 -297 -151 -413z" />
<glyph unicode="&#x415;" d="M35 0l270 1536h696l-20 -119h-563l-99 -553h512l-20 -119h-512l-111 -626h574l-21 -119h-706z" />
<glyph unicode="&#x416;" horiz-adv-x="1628" d="M-90 0l639 915l-346 621h153l424 -768l135 768h134l-136 -768l695 768h153l-563 -621l315 -915h-143l-278 807l-211 -225l-103 -582h-133l103 582l-134 225l-561 -807h-143z" />
<glyph unicode="&#x417;" horiz-adv-x="1024" d="M47 408h133q-14 -90 3 -162t76.5 -119t156.5 -47q95 0 173.5 50t123.5 124.5t61 161.5q8 30 4.5 65t-10.5 70.5t-29.5 69t-53 60t-81.5 44t-115 20.5h-96l21 113h43q166 0 274 82t135 236q14 74 -3 137.5t-70 105t-134 41.5q-64 0 -119.5 -28t-94 -75t-64.5 -99t-41 -109 h-127q18 110 77 205t158.5 157t217.5 62q187 0 278 -115.5t60 -292.5q-4 -25 -11.5 -52t-29.5 -72t-52 -84t-83.5 -79t-120.5 -65q72 -27 120 -72.5t67.5 -97.5t25 -112.5t-8.5 -118.5q-16 -88 -49.5 -159.5t-72.5 -117t-89.5 -79t-93 -50t-89.5 -26t-71 -11.5t-47 -2 q-263 0 -338 175q-45 105 -14 266z" />
<glyph unicode="&#x418;" horiz-adv-x="1138" d="M33 0l270 1536h133l-231 -1319h4l797 1319h165l-270 -1536h-133l231 1315h-4l-800 -1315h-162z" />
<glyph unicode="&#x419;" horiz-adv-x="1138" d="M33 0l270 1536h133l-231 -1319h4l797 1319h165l-270 -1536h-133l231 1315h-4l-800 -1315h-162zM508 1878h82q-1 -81 49 -123.5t135 -42.5q84 0 150.5 42.5t97.5 123.5h76q-34 -125 -128 -191.5t-222 -66.5q-121 0 -185 69t-55 189z" />
<glyph unicode="&#x41a;" horiz-adv-x="1024" d="M35 0l270 1536h133l-135 -768l694 768h154l-563 -621l315 -915h-143l-279 807l-211 -225l-102 -582h-133z" />
<glyph unicode="&#x41b;" horiz-adv-x="1138" d="M-51 -37l22 131q42 0 74 13.5t55 40t40.5 64.5t31 90t25.5 112.5t26 136.5v2l172 983h772l-270 -1536h-133l250 1417h-506l-156 -885q-39 -223 -74 -317q-67 -184 -205 -233q-55 -19 -124 -19z" />
<glyph unicode="&#x41c;" horiz-adv-x="1478" d="M47 0l270 1536h224l129 -1339h4l608 1339h217l-270 -1536h-133l247 1403h-4l-628 -1403h-142l-137 1403h-4l-248 -1403h-133z" />
<glyph unicode="&#x41d;" horiz-adv-x="1138" d="M37 0l270 1536h133l-114 -653h594l114 653h133l-270 -1536h-133l135 764h-594l-135 -764h-133z" />
<glyph unicode="&#x41e;" horiz-adv-x="1138" d="M112.5 338q-4.5 63 4.5 164.5t17.5 157t25.5 151.5q13 77 28 142t40.5 146t55.5 145t75.5 127.5t99 106t126.5 69t158 26.5q73 0 131 -19t97 -47.5t65 -78t40 -94t17.5 -113.5t2.5 -119t-10.5 -127.5t-16.5 -121.5t-20 -118q-14 -85 -28 -149t-39 -149t-54 -147 t-74.5 -127t-100 -106t-130.5 -67.5t-166 -26.5q-92 0 -158.5 32t-105 77t-57.5 124t-23.5 142zM244 463q-17 -380 245 -381q75 0 136.5 29.5t105.5 94.5t73 116.5t54.5 150t34 136.5t24.5 131q4 18 5 26q42 242 39 368q-10 319 -244 320q-64 0 -119.5 -27t-94 -66.5 t-73 -104t-55 -117t-40.5 -130.5t-28 -120.5t-20 -108.5q-38 -219 -43 -317z" />
<glyph unicode="&#x41f;" horiz-adv-x="1138" d="M37 0l270 1536h860l-270 -1536h-133l250 1417h-594l-250 -1417h-133z" />
<glyph unicode="&#x420;" horiz-adv-x="1024" d="M53 0l271 1536h272q89 0 157 -8t125 -26t92 -48t59 -75t25 -105t-10 -139q-42 -231 -184 -334q-74 -55 -178 -81t-170 -26h-203l-123 -694h-133zM330 813h114q79 0 135.5 5.5t115.5 24.5t98.5 52t70.5 90t45 137q8 58 8.5 102.5t-15.5 77t-37.5 54t-58.5 35t-78.5 19.5 t-96.5 7h-195z" />
<glyph unicode="&#x421;" horiz-adv-x="1138" d="M123 329q-10 155 41 449q2 10 6 31v2q13 77 28 142t40.5 146t55.5 145t75 127.5t98.5 106t126.5 69t158 26.5q81 0 145 -25t104.5 -69t65.5 -104t27.5 -131t-9.5 -150h-133q4 55 4 107t-15 98t-39.5 80.5t-69.5 54.5t-105 20q-75 0 -136 -29.5t-105 -94t-73 -115.5 t-54 -148.5t-33 -134t-24 -126.5q-4 -18 -5 -26q-38 -221 -43 -321q-15 -376 246 -377q81 0 146.5 40.5t107.5 109.5t67.5 138.5t42.5 149.5h133q-13 -80 -41.5 -158.5t-75.5 -151t-106.5 -127t-139.5 -87.5t-169 -33q-319 0 -342 366z" />
<glyph unicode="&#x422;" d="M188 1417l21 119h829l-20 -119h-348l-250 -1417h-133l250 1417h-349z" />
<glyph unicode="&#x423;" horiz-adv-x="1024" d="M92 -31l23 125q40 -4 75 -4q48 0 89 27.5t83 103.5l101 174l-277 1141h148l219 -969l483 969h140l-664 -1288q-33 -64 -60.5 -107.5t-66.5 -88t-87 -67t-105 -22.5q-14 0 -101 6z" />
<glyph unicode="&#x424;" horiz-adv-x="1478" d="M115 560q-22 103 0 226q42 240 199 372t413 132h72l43 246h133l-43 -246h72q256 0 367 -132t69 -372q-22 -122 -80.5 -225.5t-138.5 -172t-175.5 -106.5t-193.5 -38h-104l-43 -244h-134l43 244h-104q-98 0 -180 38t-137.5 106.5t-77.5 171.5zM245.5 596 q16.5 -77 64 -128.5t118 -77t160.5 -25.5h47l143 809h-127q-156 -3 -265 -112t-140 -286q-17 -103 -0.5 -180zM768 365h47q186 0 320 106t170 305q31 177 -40 286t-227 112h-127z" />
<glyph unicode="&#x425;" horiz-adv-x="1024" d="M-66 0l535 793l-246 743h150l196 -616l422 616h148l-512 -743l258 -793h-146l-215 668l-446 -668h-144z" />
<glyph unicode="&#x426;" horiz-adv-x="1138" d="M37 0l270 1536h133l-250 -1417h594l250 1417h133l-249 -1417h96l-60 -340h-133l39 221h-823z" />
<glyph unicode="&#x427;" horiz-adv-x="1060" d="M174 965l100 571h134l-95 -539q-20 -113 23.5 -169t144.5 -56q190 0 365 111l115 653h133l-271 -1536h-133l135 764q-108 -58 -203 -90.5t-206 -32.5q-127 0 -197 92t-45 232z" />
<glyph unicode="&#x428;" horiz-adv-x="1478" d="M37 0l270 1536h133l-250 -1417h400l250 1417h133l-250 -1417h399l250 1417h133l-272 -1536h-1196z" />
<glyph unicode="&#x429;" horiz-adv-x="1478" d="M37 0l270 1536h133l-250 -1417h400l250 1417h133l-250 -1417h399l250 1417h133l-250 -1417h97l-60 -340h-133l39 221h-1161z" />
<glyph unicode="&#x42a;" horiz-adv-x="1138" d="M154 0l249 1417h-215l21 119h348l-119 -672h142q77 0 138.5 -6t115 -19.5t91 -35t66.5 -53.5t41 -74.5t15 -98t-11 -124.5q-42 -238 -190 -344q-76 -57 -180.5 -83t-171.5 -26h-340zM307 119h117q67 0 117 4t103 15.5t91.5 34t73 57.5t57.5 87.5t35 122.5q9 60 8.5 106 t-16 80t-39 56.5t-60.5 36.5t-80 20t-98 6h-198z" />
<glyph unicode="&#x42b;" horiz-adv-x="1402" d="M39 0l270 1536h133l-118 -672h141q67 0 122.5 -4.5t104.5 -14.5t86.5 -26t67.5 -39.5t49 -55t29 -71.5t9.5 -90t-11.5 -110q-42 -237 -191 -344q-76 -57 -180.5 -83t-171.5 -26h-340zM193 119h116q67 0 117 4t103 15.5t91.5 34t73 57.5t57.5 87.5t35 122.5q9 60 9 106 t-16 80t-39 56.5t-60 36.5t-80 20t-98 6h-199zM1028 0l270 1536h134l-271 -1536h-133z" />
<glyph unicode="&#x42c;" horiz-adv-x="1024" d="M39 0l270 1536h133l-118 -672h141q67 0 122.5 -4.5t104.5 -14.5t86.5 -26t67.5 -39.5t49 -55t29 -71.5t9.5 -90t-11.5 -110q-42 -237 -191 -344q-76 -57 -180.5 -83t-171.5 -26h-340zM193 119h116q67 0 117 4t103 15.5t91.5 34t73 57.5t57.5 87.5t35 122.5q9 60 9 106 t-16 80t-39 56.5t-60 36.5t-80 20t-98 6h-199z" />
<glyph unicode="&#x42d;" horiz-adv-x="1138" d="M106.5 387.5q1.5 65.5 14.5 132.5h133q-9 -63 -11 -118.5t7.5 -116t32 -104t68.5 -71.5t112 -28q52 0 98.5 15.5t82 39t67.5 63.5t54.5 77t43.5 92t33.5 95t26.5 99.5t20 93.5t16 88h-483l20 119h484q10 57 16 105t9.5 111t-0.5 112.5t-18.5 100.5t-40.5 84.5t-70 55 t-103 21.5q-74 0 -135 -30t-102.5 -83t-69 -113.5t-45.5 -133.5h-134q19 99 61 185t104.5 152t149 104t187.5 38q85 0 148.5 -26.5t102.5 -69t62 -106t30.5 -127.5t5 -145t-11 -146t-21.5 -142q-17 -96 -28 -152t-37 -157t-53 -164t-73.5 -142t-100.5 -124t-132 -77 t-170 -32q-75 0 -135 23t-100.5 63.5t-67.5 94t-38 116t-9.5 128z" />
<glyph unicode="&#x42e;" horiz-adv-x="1478" d="M37 0l270 1536h133l-114 -653h188q14 72 31 135.5t43 135.5t57.5 130t76 113.5t96 93t120.5 60t147 22.5q73 0 131 -19t97 -47.5t65 -78t40 -94t17.5 -113.5t2.5 -119t-10.5 -127.5t-16.5 -121.5t-20 -118q-14 -85 -28 -149t-39 -149t-54 -147t-74.5 -127t-100 -106 t-130.5 -67.5t-166 -26.5q-88 0 -153 28.5t-103 71.5t-59 113.5t-27 133.5t0 153.5t14 151.5t23 149h-189l-135 -764h-133zM586 463q-17 -380 245 -381q75 0 136.5 29.5t105.5 94.5t73 116.5t54.5 150t34 136.5t24.5 131q4 18 5 26q42 242 39 368q-10 319 -244 320 q-64 0 -119.5 -27t-94 -66.5t-73 -104t-55 -117t-40.5 -130.5t-28 -120.5t-20 -108.5q-38 -219 -43 -317z" />
<glyph unicode="&#x42f;" horiz-adv-x="1024" d="M-27 0l4 18q28 14 54 70.5t38.5 106.5t28 126t17.5 82q12 64 24 109.5t32.5 92t48 78t69 57t96.5 38.5v4q-56 13 -94.5 50.5t-54.5 87t-20.5 108.5t7.5 115q16 91 51 160t82.5 113t113 71t137 38t159.5 11h297l-270 -1536h-134l127 723h-137q-62 0 -103 -3t-90.5 -15.5 t-82.5 -35t-61.5 -64t-43.5 -101.5q-4 -19 -22.5 -105t-32.5 -144.5t-40 -134t-54 -120.5h-146zM349 1050.5q3 -36.5 9.5 -65t22 -50t31 -36.5t36.5 -25.5t38 -17t36 -9.5t30 -4t21 -1h234l102 575h-192q-165 0 -249 -61t-112 -223q-10 -46 -7 -82.5z" />
<glyph unicode="&#x430;" horiz-adv-x="796" d="M-8.5 166q-3.5 58 10.5 125q18 104 66 175.5t141 115.5q54 23 165.5 63t166.5 64q14 6 25 19.5t14 25.5q11 34 19.5 92t8.5 96q-3 55 -35 84t-106 29q-27 0 -50.5 -3.5t-41.5 -12t-32 -16t-26 -23t-19.5 -25.5t-16 -31t-12.5 -31t-12 -34l-11 -33h-115q22 149 115 231 t241 82q165 0 218 -86q28 -44 29 -105t-13 -116l-121 -694q-9 -51 3 -64.5t65 -11.5l-15 -86q-58 -21 -133 -6q-10 4 -17.5 8.5t-12.5 11.5t-7.5 11.5t-4 15t-2 15t-1 19.5t-0.5 21h-2q-109 -121 -270 -121q-75 0 -123 25t-66.5 68.5t-22 101.5zM117 272q-15 -92 12 -144 t113 -52q108 0 182 84q72 85 100 252l37 198q-38 -19 -80.5 -36.5t-96 -37.5t-77.5 -30q-97 -39 -134 -86t-56 -148z" />
<glyph unicode="&#x431;" d="M71.5 241.5q-4.5 49.5 2.5 130t15 135.5t24 146q16 90 31.5 161.5t39 153.5t50 144.5t63.5 125.5t80.5 106.5t101.5 76.5t125 47q132 27 182.5 51t59.5 68h96q-18 -99 -87 -148t-228 -85q-64 -14 -115.5 -41.5t-84.5 -58t-60.5 -73t-42 -76.5t-29.5 -79h4q45 59 114.5 96 t147.5 37q66 0 115.5 -20t80 -53t48.5 -82t24.5 -98t4.5 -112t-8.5 -114t-16.5 -111q-11 -63 -22.5 -114.5t-32 -115.5t-44 -113.5t-59.5 -99t-78.5 -82t-100.5 -53t-126 -20.5q-72 0 -124 21.5t-83.5 53t-47 89t-20 107zM187 310q2 -234 175 -234q44 0 81.5 13t67 40.5 t52.5 56t41.5 73.5t31 77t24.5 83.5t17 76.5t13 71q7 38 11 63.5t9 68.5t6 73.5t-0.5 70t-9 67.5t-21.5 57t-34.5 47t-51.5 29.5t-71 11.5q-227 0 -307 -465q-35 -190 -34 -280z" />
<glyph unicode="&#x432;" horiz-adv-x="823" d="M20 0l199 1130h252q160 0 219 -61q74 -77 51 -215q-16 -91 -66 -159t-136 -99q179 -49 141 -270q-11 -60 -31.5 -108t-46.5 -82t-62.5 -58.5t-74.5 -39.5t-87.5 -23.5t-95.5 -11.5t-104 -3h-158zM158 106h88q72 0 120 8.5t90.5 32t68 69t38.5 116.5q5 30 6 55t-4 44.5 t-11.5 35t-20 26.5t-25.5 19t-33 13t-37 8t-43 4t-45 1.5t-49 0.5h-68zM252 643h65q69 0 113 6.5t86 26.5t67.5 62t37.5 108q5 26 5.5 48t-5 39t-11 30t-19 22.5t-24 16.5t-31.5 11t-34 6.5t-39.5 3.5t-41 1h-44.5h-58z" />
<glyph unicode="&#x433;" horiz-adv-x="737" d="M33 0l198 1130h529l-19 -106h-411l-180 -1024h-117z" />
<glyph unicode="&#x434;" d="M-86 -221l57 327h68q50 29 77 97t52 205l127 722h577l-180 -1024h72l-57 -327h-117l39 221h-559l-39 -221h-117zM174 106h399l162 918h-340l-110 -633q-34 -194 -111 -285z" />
<glyph unicode="&#x435;" horiz-adv-x="796" d="M40 343q4 65 10.5 111t17.5 107t20.5 105.5t28.5 111t40 115t55 101.5t73.5 87t95 56t119.5 22q76 0 129 -29t80 -75t38 -110t8 -126.5t-16 -132.5l-20 -115h-531q-27 -159 -31 -209q-23 -286 158 -286q48 0 87 18.5t63 44.5t45 70t31.5 76.5t23.5 83.5h115 q-14 -81 -43.5 -150t-75.5 -126t-114 -89.5t-152 -32.5q-65 0 -113.5 21.5t-77 54t-44 84t-20 99.5t-0.5 113zM207 676h411q72 379 -139 379q-201 0 -272 -379z" />
<glyph unicode="&#x436;" horiz-adv-x="1214" d="M-76 0l438 709l-233 421h150l272 -532l94 532h119l-94 -532l460 532h150l-381 -421l188 -709h-124l-168 588l-156 -174l-74 -414h-119l74 414l-94 174l-377 -588h-125z" />
<glyph unicode="&#x437;" horiz-adv-x="796" d="M11 201q-6 43 9 98h119q-18 -99 22 -160t140 -61q98 0 163 65.5t83 165.5q2 27 3.5 56.5t-10.5 59.5t-32 54t-61.5 40.5t-98.5 19.5h-72l19 100h33q121 0 193 56.5t91 162.5q13 79 -22.5 139t-116.5 60q-86 0 -143 -62.5t-72 -148.5h-115q20 126 114 218.5t226 92.5 q138 0 206 -87t44 -218q-3 -18 -9 -37.5t-22 -52t-38.5 -60t-62 -56.5t-89.5 -48q194 -70 156 -291q-11 -65 -36 -118t-54.5 -86.5t-67 -59t-69 -38t-66.5 -20t-53.5 -9t-34.5 -1.5h-3h-21.5t-35 2.5t-43.5 8t-47 16t-46 27t-39.5 40t-28.5 56.5t-12 76z" />
<glyph unicode="&#x438;" d="M27 0l198 1130h119l-164 -931h4l541 931h152l-199 -1130h-119l164 930h-4l-545 -930h-147z" />
<glyph unicode="&#x439;" d="M27 0l198 1130h119l-164 -931h4l541 931h152l-199 -1130h-119l164 930h-4l-545 -930h-147zM326 1511h82q0 -81 50.5 -123t135.5 -42t150.5 42t95.5 123h75q-34 -125 -127 -191.5t-221 -66.5q-121 0 -185.5 69t-55.5 189z" />
<glyph unicode="&#x43a;" horiz-adv-x="796" d="M25 0l198 1130h119l-94 -532l461 532h149l-381 -421l189 -709h-125l-168 588l-156 -174l-74 -414h-118z" />
<glyph unicode="&#x43b;" d="M-35 -29l21 123q81 0 115.5 67.5t66.5 246.5l127 722h577l-198 -1130h-119l180 1024h-340l-110 -633q-11 -61 -21.5 -105.5t-27.5 -96.5t-40 -88t-55 -67.5t-76.5 -47t-99.5 -15.5z" />
<glyph unicode="&#x43c;" horiz-adv-x="1214" d="M31 0l198 1130h197l111 -950h4l450 950h189l-199 -1130h-117l176 1004h-4l-475 -1004h-110l-123 1004h-4l-177 -1004h-116z" />
<glyph unicode="&#x43d;" d="M31 0l198 1130h119l-82 -473h406l82 473h118l-198 -1130h-119l98 553h-405l-98 -553h-119z" />
<glyph unicode="&#x43e;" d="M67.5 313.5q0.5 39.5 7 95t12 93t15.5 90.5q11 60 23.5 112t33 111t45 107t60.5 93.5t78 76t98 49t121 18.5q66 0 115.5 -20t80 -53t48.5 -82t24.5 -98t4.5 -112t-8.5 -114t-16.5 -111q-11 -63 -22.5 -114.5t-32 -115.5t-44 -113.5t-59.5 -99t-78.5 -82t-100.5 -53 t-126 -20.5q-56 0 -100.5 13.5t-75 34.5t-51 55.5t-32.5 68.5t-16 82.5t-3.5 88zM187 310q2 -234 175 -234q44 0 81.5 13t67 40.5t52.5 56t41.5 73.5t31 77t24.5 83.5t17 76.5t13 71q7 38 11 63.5t9 68.5t6 73.5t-0.5 70t-9 67.5t-21.5 57t-34.5 47t-51.5 29.5t-71 11.5 q-227 0 -307 -465q-35 -190 -34 -280z" />
<glyph unicode="&#x43f;" d="M31 0l198 1130h643l-198 -1130h-119l180 1026h-405l-180 -1026h-119z" />
<glyph unicode="&#x440;" d="M-51 -389l266 1519h119l-17 -102q114 131 252 131q64 0 112.5 -19t78 -50t47 -77.5t23.5 -93.5t4 -107.5t-8.5 -109.5t-16.5 -108q-39 -225 -81 -334q-111 -288 -357 -289q-150 0 -215 121l-84 -481h-123zM203 309q-1 -233 176 -233q36 0 68.5 12.5t57 30t47 49.5 t37.5 57.5t30 69t23 68.5t18.5 72t13.5 63t10 57q6 33 9 52t9 58.5t7.5 66t3.5 65.5t-2 66t-9.5 59.5t-18 54t-29 40.5t-42 28.5t-57.5 9.5q-56 0 -102 -20.5t-77 -59t-54 -81t-38 -98.5t-24.5 -99.5t-18.5 -95.5q-3 -20 -5 -30q-33 -181 -33 -262z" />
<glyph unicode="&#x441;" horiz-adv-x="796" d="M43 250.5q-1 43.5 0 78.5t7 82.5t11 81t13 78.5q11 61 22 110.5t30.5 112.5t42 111.5t57 98t75 82t96.5 53t121 20.5q98 0 160.5 -52t82 -133t1.5 -177h-117q15 111 -23.5 186t-129.5 72q-51 -1 -92.5 -21t-72.5 -68t-50.5 -79.5t-39 -107.5t-24 -97.5t-19.5 -100.5 l-6 -30q-33 -191 -25 -284q16 -191 171 -191q27 0 51 6.5t42.5 15.5t36 27.5t29 32t24 40.5t19 41.5t16.5 46.5t13.5 44t12.5 45h118q-14 -83 -42 -152t-73 -127.5t-113.5 -91.5t-154.5 -33q-49 0 -88.5 9.5t-68 29t-50 43t-34 57t-20.5 65.5t-9 75.5z" />
<glyph unicode="&#x442;" horiz-adv-x="718" d="M119 1024l18 106h639l-18 -106h-260l-181 -1024h-118l180 1024h-260z" />
<glyph unicode="&#x443;" horiz-adv-x="796" d="M-113 -385l19 104q39 -1 76.5 -2t77 16.5t63.5 55.5q54 92 102 207l-94 1134h125l74 -915h4l405 915h121l-504 -1116q-2 -5 -17 -41t-20.5 -47.5t-21 -45.5t-24.5 -50t-25 -45t-30 -46t-31 -38t-35.5 -36.5t-38.5 -26.5q-41 -21 -80.5 -26.5t-90.5 -1t-55 4.5z" />
<glyph unicode="&#x444;" horiz-adv-x="1441" d="M60.5 243.5q-3.5 45.5 3.5 121t13 116t19 113.5q10 59 21.5 108t31 109.5t42 107.5t56.5 93.5t74.5 77.5t96 50t119.5 19q134 0 206 -131l88 508h115l-88 -508q114 131 252 131q64 0 112.5 -19t78 -50t47 -77.5t23.5 -93.5t4 -107.5t-8.5 -109.5t-16.5 -108 q-13 -73 -21 -113.5t-27 -116t-39 -121t-54 -103.5t-74 -90.5t-98 -55.5t-126 -23q-150 0 -215 121l-84 -481h-123l84 481q-107 -121 -256 -121q-68 0 -118 23t-78.5 55.5t-42.5 90.5t-17.5 103.5zM181.5 294q0.5 -41 6.5 -68.5t17.5 -58t30 -49t46.5 -30.5t64 -12 q47 0 87.5 17t69 43.5t52.5 68t38.5 79t28 89.5t20.5 87t15 82l1.5 10.5t1.5 9t2 9.5q31 171 33 243q6 241 -181 241q-39 0 -74 -14.5t-62 -43t-48.5 -59t-39.5 -76.5t-30 -80.5t-23 -84.5t-16 -75.5t-12 -66.5q-6 -35 -9.5 -56.5t-9.5 -64t-7.5 -71t-1 -69.5zM743 305 q2 -229 177 -229q36 0 68.5 12.5t57 30t47 49.5t37.5 57.5t30 69t23 68.5t18.5 72t13.5 63t10 57q6 33 9 52t9 58.5t7.5 66t3.5 65.5t-2 66t-9.5 59.5t-18 54t-29 40.5t-42 28.5t-57.5 9.5q-38 0 -71.5 -10.5t-59 -25.5t-48.5 -43.5t-38.5 -51.5t-30.5 -63t-23.5 -64.5 t-18.5 -69.5t-13.5 -65t-11.5 -63q-3 -19 -5 -28q-33 -183 -33 -266z" />
<glyph unicode="&#x445;" horiz-adv-x="796" d="M-76 0l402 592l-183 538h133l140 -436l295 436h137l-377 -538l197 -592h-133l-158 479l-324 -479h-129z" />
<glyph unicode="&#x446;" d="M31 0l198 1130h119l-180 -1024h405l181 1024h118l-180 -1024h72l-57 -327h-117l39 221h-598z" />
<glyph unicode="&#x447;" horiz-adv-x="872" d="M139 709l74 421h119l-70 -399q-12 -72 18.5 -114t98.5 -42q128 0 254 78l84 477h119l-199 -1130h-119l96 549q-78 -41 -143.5 -62.5t-142.5 -21.5q-97 0 -152.5 70t-36.5 174z" />
<glyph unicode="&#x448;" horiz-adv-x="1175" d="M31 0l198 1130h119l-180 -1024h276l181 1024h118l-180 -1024h277l180 1024h119l-199 -1130h-909z" />
<glyph unicode="&#x449;" horiz-adv-x="1175" d="M31 0l198 1130h119l-180 -1024h276l181 1024h118l-180 -1024h277l180 1024h119l-181 -1024h72l-57 -327h-117l39 221h-864z" />
<glyph unicode="&#x44a;" d="M119 1024l18 106h324l-84 -485h86q205 0 287.5 -68t52.5 -239q-32 -181 -141 -258q-58 -41 -137 -60.5t-128 -19.5h-254l181 1024h-205zM281 106h49q64 0 104 3t86.5 15.5t75 36t52 66t34.5 103.5q9 38 7 67t-7 51t-20.5 38t-32.5 26t-43.5 16t-54.5 8.5t-64 2.5h-111z " />
<glyph unicode="&#x44b;" horiz-adv-x="1175" d="M31 0l198 1130h119l-84 -485h86q205 0 287.5 -68t52.5 -239q-32 -181 -141 -258q-58 -41 -136.5 -60.5t-127.5 -19.5h-254zM168 106h49q64 0 104 3t86.5 15.5t75 36t52 66t34.5 103.5q9 38 7 67t-7 51t-20.5 38t-32.5 26t-43.5 16t-54.5 8.5t-64 2.5h-110zM821 0 l199 1130h119l-199 -1130h-119z" />
<glyph unicode="&#x44c;" horiz-adv-x="796" d="M31 0l198 1130h119l-84 -485h86q205 0 287.5 -68t52.5 -239q-32 -181 -141 -258q-58 -41 -136.5 -60.5t-127.5 -19.5h-254zM168 106h49q64 0 104 3t86.5 15.5t75 36t52 66t34.5 103.5q9 38 7 67t-7 51t-20.5 38t-32.5 26t-43.5 16t-54.5 8.5t-64 2.5h-110z" />
<glyph unicode="&#x44d;" horiz-adv-x="796" d="M14.5 252.5q0.5 57.5 12.5 122.5h118l-3 -45t-2 -44.5t0.5 -46t5 -42t10.5 -40t18 -32t26.5 -27t37.5 -16t49 -6.5q36 0 68.5 11t57.5 28.5t47.5 45.5t38 55t30 64.5t23.5 66.5t18 69.5t13.5 64t10.5 58.5h-350l18 104h350q14 79 17.5 141t-5.5 127.5t-47 103.5t-104 40 q-92 3 -157 -72.5t-87 -185.5h-116q25 150 125 256t245 106q65 0 113.5 -20.5t78 -53t46.5 -82t22 -98t2.5 -112t-9 -112.5t-17.5 -110q-12 -68 -21.5 -114t-29 -114.5t-40.5 -115t-56 -99t-76 -84t-99 -52.5t-127 -21t-120 22t-80 59.5t-42.5 90t-13 110z" />
<glyph unicode="&#x44e;" horiz-adv-x="1214" d="M31 0l198 1130h119l-82 -473h156q102 502 444 502q66 0 115.5 -20t80 -53t48.5 -82t24.5 -98t4.5 -112t-8.5 -114t-16.5 -111q-11 -63 -22.5 -114.5t-32 -115.5t-44 -113.5t-59.5 -99t-78.5 -82t-100.5 -53t-126 -20.5t-119 19.5t-82 50t-49 79t-24 95.5t-3 110.5 t9.5 113t17.5 114.5h-153l-98 -553h-119zM492 305q5 -229 176 -229q39 0 73.5 12t61 29.5t50.5 49t40 57.5t32 69t24.5 70t19.5 74t14.5 67.5t11.5 62.5q7 39 11 64t9 68t6 73t-0.5 70.5t-8.5 67.5t-21 57t-34.5 47.5t-51.5 29t-71 11.5q-228 0 -308 -465q-36 -193 -34 -285 z" />
<glyph unicode="&#x44f;" horiz-adv-x="823" d="M-16 0l2 14q17 8 32.5 33.5t27 64.5t18.5 68t15 71t9 46q11 60 23.5 99t34.5 77.5t57 62.5t86 37l2 2q-55 13 -87.5 56.5t-37.5 98t2 112.5q15 84 50 141.5t89.5 89t117.5 44.5t146 13h224l-199 -1130h-119l92 522h-84q-45 0 -74 -2t-63.5 -11t-56.5 -26t-41.5 -48 t-30.5 -75q-4 -15 -17 -75.5t-23 -102.5t-28.5 -95.5t-39.5 -86.5h-127zM283 827q-10 -57 2 -98.5t31.5 -60t52.5 -29t47.5 -11.5t34.5 -1h137l69 397h-106q-63 0 -104 -7.5t-76 -28.5t-56 -60t-32 -101z" />
<glyph unicode="&#x451;" horiz-adv-x="796" d="M40 343q4 65 10.5 111t17.5 107t20.5 105.5t28.5 111t40 115t55 101.5t73.5 87t95 56t119.5 22q76 0 129 -29t80 -75t38 -110t8 -126.5t-16 -132.5l-20 -115h-531q-27 -159 -31 -209q-23 -286 158 -286q48 0 87 18.5t63 44.5t45 70t31.5 76.5t23.5 83.5h115 q-14 -81 -43.5 -150t-75.5 -126t-114 -89.5t-152 -32.5q-65 0 -113.5 21.5t-77 54t-44 84t-20 99.5t-0.5 113zM207 676h411q72 379 -139 379q-201 0 -272 -379zM293 1264l37 209h131l-37 -209h-131zM616 1264l37 209h131l-36 -209h-132z" />
<glyph unicode="&#x452;" d="M27 0l180 1026h-103l19 104h102l72 406h119l-72 -406h315l-18 -104h-315l-37 -217q102 122 268 129q72 5 132.5 -19t86.5 -79q18 -30 21 -78t-1 -77.5t-14 -86.5l-125 -713q-8 -45 -12 -64t-15 -55t-29 -61t-44 -47q-76 -45 -203 -45l19 111q19 -1 78 8q20 7 35.5 21 t23.5 27.5t14.5 37t8.5 35t6 36.5l123 686q8 46 11 78t-0.5 69t-18 59.5t-45 37.5t-77.5 15q-154 0 -270 -168l-117 -666h-118z" />
<glyph unicode="&#x453;" horiz-adv-x="737" d="M33 0l198 1130h529l-19 -106h-411l-180 -1024h-117zM358 1241l277 285h160l-332 -285h-105z" />
<glyph unicode="&#x454;" horiz-adv-x="796" d="M45 250.5q-1 43.5 0 78.5t7 82.5t11 81t13 78.5q11 61 22 110.5t30.5 112.5t42 111.5t57 98t75 82t96.5 53t121 20.5q98 0 160.5 -52t82 -133t1.5 -177h-117q15 111 -23.5 186t-129.5 72q-46 -1 -84.5 -19.5t-67 -51.5t-50 -70t-38 -87.5t-27 -91t-20.5 -92.5h350 l-18 -104h-351q-10 -56 -14.5 -91.5t-9.5 -98t3 -103.5t24.5 -84t53.5 -64.5t91 -21.5q27 0 51 6.5t42.5 15.5t36 27.5t29 32t24 40.5t19 41.5t16.5 46.5t13.5 44t12.5 45h118q-14 -83 -42 -152t-73 -127.5t-113.5 -91.5t-154.5 -33q-49 0 -88.5 9.5t-68 29t-50 43t-34 57 t-20.5 65.5t-9 75.5z" />
<glyph unicode="&#x455;" horiz-adv-x="796" d="M16 307h121q-23 -231 178 -231q91 0 153.5 60.5t78.5 152.5q11 61 -8 108t-57.5 78t-87 57.5t-97.5 53.5t-88.5 58.5t-60.5 79.5t-13 110q12 154 102.5 239.5t245.5 85.5q145 0 210.5 -85t39.5 -232h-117q14 94 -25.5 153.5t-129.5 59.5q-83 0 -134.5 -48t-66.5 -133 q-18 -118 107 -172q37 -18 61 -30.5t56 -31.5t52.5 -34t44.5 -36.5t38.5 -42.5t28 -48t18.5 -56t5 -64.5t-7 -75.5q-26 -149 -125.5 -230.5t-249.5 -81.5q-164 0 -232.5 86.5t-40.5 249.5z" />
<glyph unicode="&#x456;" horiz-adv-x="454" d="M66 0l198 1130h119l-199 -1130h-118zM293 1341l35 195h137l-35 -195h-137z" />
<glyph unicode="&#x457;" horiz-adv-x="409" d="M43 0l199 1130h118l-198 -1130h-119zM100 1264l37 209h131l-37 -209h-131zM424 1264l37 209h131l-37 -209h-131z" />
<glyph unicode="&#x458;" horiz-adv-x="454" d="M-127 -387l18 111q19 -1 78 8q20 7 35.5 21t23.5 27.5t14.5 37t8.5 35t6 36.5l219 1241h119l-219 -1245q-8 -45 -12 -64t-15 -55t-29 -61t-44 -47q-76 -45 -203 -45zM305 1348l33 188h137l-33 -188h-137z" />
<glyph unicode="&#x459;" horiz-adv-x="1327" d="M-35 -29l21 123q81 0 115.5 67.5t66.5 246.5l127 722h577l-84 -485h86q205 0 287.5 -68t52.5 -239q-32 -181 -141 -258q-58 -41 -136.5 -60.5t-127.5 -19.5h-254l180 1024h-340l-110 -633q-11 -61 -21.5 -105.5t-27.5 -96.5t-40 -88t-55 -67.5t-76.5 -47t-99.5 -15.5z M692 106h49q52 0 87.5 2t76 9.5t68 22.5t53.5 39t42.5 62t25.5 89q9 38 7 67t-7 51t-20.5 38t-32.5 26t-43.5 16t-54.5 8.5t-64 2.5h-111z" />
<glyph unicode="&#x45a;" horiz-adv-x="1327" d="M31 0l198 1130h119l-82 -473h406l82 473h118l-84 -485h86q205 0 287.5 -68t52.5 -239q-32 -181 -141 -258q-58 -41 -136.5 -60.5t-127.5 -19.5h-254l98 553h-405l-98 -553h-119zM692 106h49q52 0 87.5 2t76 9.5t68 22.5t53.5 39t42.5 62t25.5 89q9 38 7 67t-7 51 t-20.5 38t-32.5 26t-43.5 16t-54.5 8.5t-64 2.5h-111z" />
<glyph unicode="&#x45b;" d="M27 0l180 1026h-103l19 104h102l72 406h119l-72 -406h315l-18 -104h-315l-37 -217q102 122 268 129q72 5 132.5 -19t86.5 -79q18 -30 21 -78t-1 -77.5t-14 -86.5l-104 -598h-119l103 575q8 46 11 78t-0.5 69t-18 59.5t-45 37.5t-77.5 15q-154 0 -270 -168l-117 -666h-118 z" />
<glyph unicode="&#x45c;" horiz-adv-x="796" d="M25 0l198 1130h119l-94 -532l461 532h149l-381 -421l189 -709h-125l-168 588l-156 -174l-74 -414h-118zM387 1241l277 285h159l-331 -285h-105z" />
<glyph unicode="&#x45e;" horiz-adv-x="796" d="M-113 -385l19 104q39 -1 76.5 -2t77 16.5t63.5 55.5q54 92 102 207l-94 1134h125l74 -915h4l405 915h121l-504 -1116q-2 -5 -17 -41t-20.5 -47.5t-21 -45.5t-24.5 -50t-25 -45t-30 -46t-31 -38t-35.5 -36.5t-38.5 -26.5q-41 -21 -80.5 -26.5t-90.5 -1t-55 4.5zM272 1511 h82q0 -81 51 -123t136 -42t150 42t95 123h76q-34 -125 -127 -191.5t-221 -66.5q-122 0 -186.5 69t-55.5 189z" />
<glyph unicode="&#x45f;" d="M31 0l198 1130h119l-188 -1024h405l189 1024h118l-198 -1130h-268l-39 -221h-117l39 221h-258z" />
<glyph unicode="&#x490;" d="M39 0l270 1536h574l39 221h133l-60 -340h-573l-250 -1417h-133z" />
<glyph unicode="&#x491;" horiz-adv-x="737" d="M33 0l198 1130h412l39 222h117l-58 -328h-411l-180 -1024h-117z" />
<glyph unicode="&#x2000;" horiz-adv-x="965" />
<glyph unicode="&#x2001;" horiz-adv-x="1931" />
<glyph unicode="&#x2002;" horiz-adv-x="965" />
<glyph unicode="&#x2003;" horiz-adv-x="1931" />
<glyph unicode="&#x2004;" horiz-adv-x="643" />
<glyph unicode="&#x2005;" horiz-adv-x="482" />
<glyph unicode="&#x2006;" horiz-adv-x="321" />
<glyph unicode="&#x2007;" horiz-adv-x="321" />
<glyph unicode="&#x2008;" horiz-adv-x="241" />
<glyph unicode="&#x2009;" horiz-adv-x="386" />
<glyph unicode="&#x200a;" horiz-adv-x="107" />
<glyph unicode="&#x2010;" horiz-adv-x="681" d="M66 551l22 119h530l-22 -119h-530z" />
<glyph unicode="&#x2011;" horiz-adv-x="681" d="M66 551l22 119h530l-22 -119h-530z" />
<glyph unicode="&#x2012;" horiz-adv-x="681" d="M66 551l22 119h530l-22 -119h-530z" />
<glyph unicode="&#x2013;" horiz-adv-x="1024" d="M-4 559l18 105h1024l-18 -105h-1024z" />
<glyph unicode="&#x2014;" horiz-adv-x="2048" d="M-4 559l18 105h2048l-18 -105h-2048z" />
<glyph unicode="&#x2018;" horiz-adv-x="327" d="M174 1077l21 115q17 101 28 145q25 92 63 136t109 63l-12 -76q-11 -4 -20.5 -10.5t-16.5 -12.5t-13.5 -16.5t-11 -17t-8.5 -20t-6.5 -19.5t-5.5 -21t-4 -19.5t-3.5 -20.5t-2.5 -19l-6 -27h61l-31 -180h-141z" />
<glyph unicode="&#x2019;" horiz-adv-x="327" d="M188 1077l13 76q11 4 20.5 10.5t16.5 12.5t13.5 16.5t11 17t8.5 20t6.5 19.5t5.5 21t4 19.5t3.5 20.5t2.5 19l6 27h-61l30 180h142l-21 -115q-15 -87 -29 -145q-25 -92 -63 -136t-109 -63z" />
<glyph unicode="&#x201a;" horiz-adv-x="454" d="M6 -279l14 76q13 5 24 14t19 17t15 22t11 22.5t8.5 26t6 24.5t5 26.5t4.5 23.5l4 27h-62l33 180h141l-20 -114q-11 -64 -31 -146q-23 -91 -61.5 -135.5t-110.5 -63.5z" />
<glyph unicode="&#x201c;" horiz-adv-x="681" d="M262 1077l21 115q17 101 28 145q25 92 63 136t109 63l-12 -76q-11 -4 -20.5 -10.5t-16.5 -12.5t-13.5 -16.5t-11 -17t-8.5 -20t-6.5 -19.5t-5.5 -21t-4 -19.5t-3.5 -20.5t-2.5 -19l-6 -27h61l-31 -180h-141zM528 1077l21 115q15 87 29 145q25 92 63 136t109 63l-13 -76 q-11 -4 -20.5 -10.5t-16.5 -12.5t-13.5 -16.5t-11 -17t-8.5 -20t-6.5 -19.5t-5.5 -21t-4 -19.5t-3.5 -20.5t-2.5 -19l-6 -27h61l-30 -180h-142z" />
<glyph unicode="&#x201d;" horiz-adv-x="681" d="M188 1077l13 76q11 4 20.5 10.5t16.5 12.5t13.5 16.5t11 17t8.5 20t6.5 19.5t5.5 21t4 19.5t3.5 20.5t2.5 19l6 27h-61l30 180h142l-21 -115q-15 -87 -29 -145q-25 -92 -63 -136t-109 -63zM455 1077l12 76q11 4 20.5 10.5t16.5 12.5t13.5 16.5t11 17t8.5 20t6.5 19.5 t5.5 21t4 19.5t3.5 20.5t2.5 19l6 27h-61l31 180h141l-21 -115q-17 -101 -28 -145q-25 -92 -63 -136t-109 -63z" />
<glyph unicode="&#x201e;" horiz-adv-x="675" d="M-16 -279l14 76q15 6 27 15t21 23t14.5 23.5t11 29.5t7.5 27.5t6 31t5 26.5l4 27h-61l33 180h141l-21 -114q-13 -77 -30 -146q-23 -91 -61.5 -135.5t-110.5 -63.5zM250 -279l14 76q15 6 27 15t21 23t14.5 23.5t11 29.5t7.5 27.5t6 31t5 26.5l4 27h-61l33 180h141 l-20 -114q-11 -64 -31 -146q-23 -91 -61.5 -135.5t-110.5 -63.5z" />
<glyph unicode="&#x2020;" d="M139 999l19 105h331l82 469h119l-82 -469h328l-18 -105h-328l-219 -1239h-119l219 1239h-332z" />
<glyph unicode="&#x2021;" d="M0 217l18 105h332l121 692h-328l19 104h327l80 455h119l-80 -455h332l-18 -104h-332l-121 -692h332l-19 -105h-331l-82 -457h-119l82 457h-332z" />
<glyph unicode="&#x2022;" horiz-adv-x="1241" d="M270 768q28 158 160.5 271.5t288.5 113.5q158 0 251.5 -113.5t65.5 -271.5q-28 -156 -161 -268.5t-291 -112.5q-155 0 -248.5 113t-65.5 268z" />
<glyph unicode="&#x2026;" horiz-adv-x="2048" d="M170 0l33 180h141l-33 -180h-141zM852 0l33 180h141l-33 -180h-141zM1534 0l33 180h141l-33 -180h-141z" />
<glyph unicode="&#x202f;" horiz-adv-x="386" />
<glyph unicode="&#x2030;" horiz-adv-x="2048" d="M151.5 944q-2.5 44 0.5 84.5t12 91.5q14 78 37 138.5t61 116t99.5 86t142.5 30.5q63 0 107.5 -21.5t67.5 -56.5t33 -85t8 -100t-13 -108q-63 -366 -334 -366q-57 0 -99.5 14t-66.5 40.5t-38.5 59t-17 76.5zM229 -31l897 1549h91l-900 -1549h-88zM281 1122 q-27 -150 2 -214t112 -64q147 0 199 278q6 35 8.5 60.5t4 61t-4.5 60t-18 48.5t-36.5 36.5t-58.5 12.5q-43 1 -78 -20.5t-56 -51.5t-37.5 -72t-24 -72t-12.5 -63zM723 252.5q3 48.5 14 109.5q65 371 340 371q63 0 107.5 -21.5t67.5 -56.5t33 -85t8 -100t-13 -108 q-63 -366 -334 -366q-68 0 -115 21t-70.5 54t-32 83t-5.5 98.5zM852 365q-25 -151 4 -215t111 -64q150 0 198 279q6 35 9 60.5t5 60.5t-4 60t-18 48.5t-36.5 36t-59.5 12.5q-157 2 -209 -278zM1383 252.5q3 48.5 14 109.5q65 371 340 371q53 0 92.5 -14.5t63.5 -41.5 t38.5 -61.5t18 -77.5t1 -85.5t-11.5 -90.5q-63 -366 -333 -366q-68 0 -115 21t-70.5 54t-32 83t-5.5 98.5zM1511 365q-25 -151 4 -215t111 -64q151 0 199 279q6 34 9 60t4.5 61t-4.5 60t-18 48.5t-36.5 36t-59.5 12.5q-157 2 -209 -278z" />
<glyph unicode="&#x2039;" horiz-adv-x="681" d="M168 483l25 144l327 217l-22 -123l-236 -166l178 -162l-22 -127z" />
<glyph unicode="&#x203a;" horiz-adv-x="681" d="M154 266l22 127l238 162l-181 166l23 123l250 -217l-25 -144z" />
<glyph unicode="&#x205f;" horiz-adv-x="482" />
<glyph unicode="&#x20ac;" d="M45 561l47 103h84q2 15 12 86q3 14 9.5 45.5t9.5 44.5h-113l47 102h90q151 582 512 582q88 0 150 -23.5t92 -58.5l-22 -127q-68 92 -224 92q-144 0 -242.5 -126t-148.5 -339h471l-47 -102h-450q-3 -14 -9.5 -46.5t-9.5 -45.5q-10 -72 -12 -84h401l-45 -103h-366 q-26 -234 32 -353.5t193 -119.5q149 0 258 92l-23 -129q-40 -33 -110.5 -55.5t-161.5 -22.5q-177 0 -254 142t-47 446h-123z" />
<glyph unicode="&#x2122;" horiz-adv-x="1478" d="M266 1432l19 104h481l-18 -104h-189l-133 -758h-104l133 758h-189zM707 674l151 862h180l47 -608h5l266 608h176l-152 -862h-104l133 753h-4l-326 -753h-73l-58 753h-4l-133 -753h-104z" />
<glyph unicode="&#x25fc;" horiz-adv-x="1126" d="M0 0v1126h1126v-1126h-1126z" />
</font>
</defs>
</svg>
