<?xml version="1.0" standalone="no"?>
<!DOCTYPE svg PUBLIC "-//W3C//DTD SVG 1.1//EN" "http://www.w3.org/Graphics/SVG/1.1/DTD/svg11.dtd" >
<svg xmlns="http://www.w3.org/2000/svg" xmlns:xlink="http://www.w3.org/1999/xlink" version="1.1">
<metadata></metadata>
<defs>
<font id="aglettericacompressedcregular" horiz-adv-x="950" >
<font-face units-per-em="2048" ascent="1681" descent="-367" />
<missing-glyph horiz-adv-x="475" />
<glyph horiz-adv-x="0" />
<glyph horiz-adv-x="682" />
<glyph unicode=" "  horiz-adv-x="475" />
<glyph unicode="&#x09;" horiz-adv-x="475" />
<glyph unicode="&#xa0;" horiz-adv-x="475" />
<glyph unicode="!" horiz-adv-x="530" d="M106 0v344h318v-344h-318zM106 428v1030h318v-1030h-318z" />
<glyph unicode="&#x22;" horiz-adv-x="681" d="M31 903v555h245v-555h-245zM406 903v555h245v-555h-245z" />
<glyph unicode="#" d="M43 410l8 198h164l29 242h-148l6 199h164l47 409h174l-47 -409h158l47 409h174l-47 -409h133l-6 -199h-149l-29 -242h133l-6 -198h-150l-47 -410h-174l47 410h-159l-46 -410h-174l48 410h-150zM389 608h160l26 242h-157z" />
<glyph unicode="$" d="M45 301v266h340v-252q0 -62 22.5 -86t67.5 -24q46 0 69 24.5t23 85.5q0 65 -29 122.5t-75 102t-101.5 88.5t-111 92.5t-101.5 103t-75 131.5t-29 167q0 321 346 365v100h154v-100q78 -6 141 -26.5t114 -57.5t79 -97.5t28 -140.5v-229h-340v207q0 61 -23 85.5t-69 24.5 q-45 0 -67.5 -24t-22.5 -86q0 -45 29 -89.5t75 -85.5t101.5 -85.5t111 -97.5t101.5 -112t75 -139t29 -169q0 -88 -25 -157t-62 -110.5t-88 -70t-95 -40t-92 -16.5v-123h-154v123q-155 9 -250.5 94t-95.5 236z" />
<glyph unicode="%" horiz-adv-x="1290" d="M35 897v301q0 260 264 260t264 -260v-301q0 -260 -264 -260t-264 260zM250 854q0 -70 49 -70t49 70v387q0 70 -49 70t-49 -70v-387zM289 -29l559 1516h151l-557 -1516h-153zM727 260v301q0 260 264 260t264 -260v-301q0 -260 -264 -260t-264 260zM942 217q0 -70 49 -70 t49 70v387q0 70 -49 70t-49 -70v-387z" />
<glyph unicode="&#x26;" horiz-adv-x="1214" d="M43 371v104q0 62 6 108t22.5 90.5t49 77t82.5 52.5q-123 116 -123 309q0 93 26.5 162.5t67.5 109t102 64t118.5 32t127.5 7.5q32 0 63 -2t73 -10t77.5 -20.5t71.5 -35.5t61.5 -53.5t41.5 -76t16 -101.5v-125q0 -97 -87 -172.5t-206 -93.5q40 -44 92.5 -112t67.5 -85h20 v219h340v-244q0 -202 -70 -272h125v-303h-141q-153 0 -195 57q-135 -86 -350 -86q-70 0 -135 12t-128.5 42t-110.5 74t-76 114t-29 158zM383 422q8 -106 43 -161.5t119 -55.5q114 0 133 57l-295 340v-180zM420 1108q0 -51 21.5 -101t56.5 -79q45 0 66.5 51.5t21.5 136.5 q0 33 -1.5 52t-8.5 41.5t-24 33t-44 10.5q-25 0 -42 -8.5t-26 -20.5t-13.5 -34t-5.5 -38t-1 -44z" />
<glyph unicode="'" horiz-adv-x="454" d="M104 903v555h246v-555h-246z" />
<glyph unicode="(" horiz-adv-x="606" d="M29 672q0 225 54 417.5t175 397.5h311q-123 -172 -183 -379t-60 -428q0 -212 64.5 -431t184.5 -376h-313q-111 170 -172 377t-61 422z" />
<glyph unicode=")" horiz-adv-x="606" d="M31 -127q120 157 185 376t65 431q0 220 -60.5 427.5t-183.5 379.5h311q121 -205 175.5 -398t54.5 -417q0 -215 -61.5 -421.5t-172.5 -377.5h-313z" />
<glyph unicode="*" d="M133 1147l57 168l199 -70v213h170v-213l199 78l57 -164l-211 -69l148 -181l-138 -106l-141 190l-133 -190l-141 104l141 180z" />
<glyph unicode="+" horiz-adv-x="1228" d="M94 446v279h381v381h279v-381h381v-279h-381v-380h-279v380h-381z" />
<glyph unicode="," horiz-adv-x="475" d="M35 -262l78 606h325l-192 -606h-211z" />
<glyph unicode="-" horiz-adv-x="530" d="M37 530v242h455v-242h-455z" />
<glyph unicode="." horiz-adv-x="475" d="M78 0v344h317v-344h-317z" />
<glyph unicode="/" horiz-adv-x="530" d="M4 -29l363 1516h159l-362 -1516h-160z" />
<glyph unicode="0" d="M43 369v692q0 99 27.5 176t70.5 123t102.5 75.5t116.5 40.5t119 11q74 0 133.5 -11t115.5 -40t94 -76t60.5 -123t22.5 -176v-692q0 -203 -113 -300.5t-317 -97.5q-202 0 -317 98t-115 300zM383 303q0 -98 90 -98q92 0 92 98v852q0 98 -92 98q-90 0 -90 -98v-852z" />
<glyph unicode="1" d="M90 1081v213q47 0 91.5 8t88 25.5t74 51t39.5 79.5h287v-1458h-340v1081h-240z" />
<glyph unicode="2" d="M33 0v180q0 95 29 185.5t75 162t102 138.5t112 127.5t102 117.5t75 118t29 120q0 104 -92 104t-92 -104v-211h-340v160q0 102 28.5 176t70.5 114t105.5 63.5t116.5 29.5t121 6q63 0 119.5 -10t113 -37t97.5 -69.5t66.5 -111t25.5 -157.5q0 -80 -24.5 -154t-63 -130.5 t-90.5 -117.5t-102 -110t-103 -113t-88 -123q-3 -5 -13 -22t-13 -23t-10 -20.5t-9.5 -24t-5 -23.5t-2.5 -28h524v-213h-864z" />
<glyph unicode="3" d="M47 311v250h340v-246q0 -110 86 -110q88 0 88 110v185q0 31 -5 53.5t-17 36.5t-24 22.5t-33.5 12.5t-38.5 5t-44 1h-114v233h131q63 0 104 30t41 99v170q0 38 -24 64t-64 26q-18 0 -32.5 -5.5t-23.5 -13t-15 -22.5t-9 -25t-4.5 -31t-1.5 -29.5v-30.5v-162h-340v209 q0 80 29 143t72.5 100t102.5 60.5t111.5 32t106.5 8.5q66 0 126 -10t117 -34.5t98 -61t66 -93t25 -127.5v-92q0 -147 -53 -216t-158 -93l-2 2v-12q70 -10 114.5 -35t71.5 -82t27 -148v-161q0 -92 -34 -161t-94 -110.5t-136.5 -61.5t-167.5 -20q-422 0 -422 340z" />
<glyph unicode="4" d="M6 334v233l397 891h412v-891h113v-233h-113v-334h-317v334h-492zM231 567h267v588h-4z" />
<glyph unicode="5" d="M41 301v279h340v-263q0 -51 24.5 -81.5t67.5 -30.5t68.5 30.5t25.5 81.5v363q0 51 -25 82t-67 31q-33 0 -63.5 -34.5t-30.5 -68.5h-340v768h856v-213h-532q-2 -46 -7.5 -138t-7.5 -138h4q116 100 254 100t218.5 -86t80.5 -258v-340q0 -114 -36 -197t-99 -129t-137 -67 t-162 -21q-118 0 -215 37.5t-157 114t-60 178.5z" />
<glyph unicode="6" d="M45 383v752q0 89 38 158.5t101.5 110.5t140.5 62t162 21q416 0 416 -363v-182h-340v182q0 62 -18.5 95.5t-71.5 33.5q-52 0 -70 -33.5t-18 -95.5v-346q59 49 113.5 72.5t124.5 23.5q122 0 201 -74t79 -208v-244q0 -81 -24.5 -146t-65 -107.5t-94 -71t-109.5 -40.5 t-114 -12q-451 0 -451 412zM385 268q0 -28 23.5 -45.5t68.5 -17.5q42 0 64 18.5t22 48.5v263q0 73 -80 73q-46 0 -72 -23t-26 -59v-258z" />
<glyph unicode="7" d="M18 1245v213h897v-207l-479 -1251h-362l479 1245h-535z" />
<glyph unicode="8" d="M35 348v158q0 104 65.5 172t161.5 82v8q-94 17 -160.5 84t-66.5 176v111q0 80 29.5 143t75 100.5t107 62t119.5 33.5t119 9q87 0 159.5 -17t135.5 -54.5t99 -107t36 -165.5v-129q0 -84 -67.5 -155.5t-161.5 -90.5v-8q44 -10 71.5 -19t60.5 -30t52 -50t32 -79t13 -117 v-125q0 -94 -35.5 -166t-98.5 -115.5t-142.5 -65.5t-173.5 -22q-201 0 -315.5 95.5t-114.5 281.5zM375 283q0 -44 27.5 -61t76.5 -17t72.5 17t23.5 61v260q0 98 -102 98q-98 0 -98 -96v-262zM375 940q0 -50 24.5 -68t73.5 -18q52 0 77 18.5t25 75.5v207q0 51 -24 74.5 t-76 23.5q-50 0 -75 -26t-25 -70v-217z" />
<glyph unicode="9" d="M45 334v182h340v-182q0 -62 18.5 -95.5t71.5 -33.5q52 0 70 33.5t18 95.5v346q-60 -49 -113.5 -72.5t-123.5 -23.5q-122 0 -201.5 74t-79.5 208v244q0 81 25 146t65 107.5t94 71t110 40.5t114 12q450 0 450 -412v-751q0 -89 -38 -158.5t-101.5 -111t-140.5 -62.5 t-162 -21q-416 0 -416 363zM385 924q0 -74 80 -74q46 0 72 23t26 59v258q0 28 -23.5 45.5t-68.5 17.5q-42 0 -64 -18.5t-22 -48.5v-262z" />
<glyph unicode=":" horiz-adv-x="475" d="M78 0v344h317v-344h-317zM78 827v344h317v-344h-317z" />
<glyph unicode=";" horiz-adv-x="475" d="M35 -262l78 606h325l-192 -606h-211zM78 827v344h317v-344h-317z" />
<glyph unicode="&#x3c;" horiz-adv-x="1228" d="M154 500v172l921 389v-209l-639 -266l639 -267v-208z" />
<glyph unicode="=" horiz-adv-x="1228" d="M94 201v278h1041v-278h-1041zM94 692v279h1041v-279h-1041z" />
<glyph unicode="&#x3e;" horiz-adv-x="1228" d="M154 111v208l639 267l-639 266v209l921 -389v-172z" />
<glyph unicode="?" d="M88 946v234q0 65 22 117.5t59 87t88 58t107.5 34t118.5 10.5q379 0 379 -313v-93q0 -63 -12.5 -112.5t-32 -81t-43.5 -57.5t-48.5 -48.5t-45 -46.5t-34 -60t-15.5 -81v-162h-318v184q0 65 11.5 115.5t30.5 81.5t42 55.5t46.5 44.5t43.5 40.5t34.5 50.5t17.5 69v115 q0 44 -13 68t-55 24q-40 0 -52.5 -23.5t-12.5 -68.5v-242h-318zM313 0v344h318v-344h-318z" />
<glyph unicode="@" horiz-adv-x="1638" d="M90 721q0 161 60.5 304t163 244t243 159.5t295.5 58.5q105 0 206.5 -27.5t189.5 -81.5t155.5 -128t106 -173.5t38.5 -210.5q0 -96 -22.5 -180t-59.5 -142.5t-85 -106t-97 -77t-98.5 -49t-87 -27.5t-64.5 -8q-44 0 -74 26.5t-34 76.5q-37 -44 -89.5 -73.5t-101.5 -29.5 q-130 0 -229.5 109.5t-99.5 257.5q0 121 48.5 227.5t141.5 174t211 67.5q160 0 244 -119l18 99h188l-88 -488q-25 -117 15 -117q71 0 127.5 81.5t56.5 232.5q0 240 -143.5 368.5t-378.5 128.5q-245 0 -392 -160.5t-147 -416.5q0 -265 158.5 -419.5t415.5 -154.5 q217 0 376 123h195q-208 -299 -588 -299q-158 0 -299.5 55.5t-246.5 152.5t-166.5 238t-61.5 304zM641 678q0 -73 40 -121.5t110 -48.5q90 0 146 63t56 152q0 74 -42.5 119t-114.5 45q-82 0 -138.5 -64t-56.5 -145z" />
<glyph unicode="A" d="M23 0l247 1458h467l189 -1458h-338l-39 358h-184l-56 -358h-286zM401 580h123l-59 649h-4z" />
<glyph unicode="B" d="M45 0v1458h344q79 0 121 -1t106 -8t98.5 -20t77 -38.5t63 -63t35.5 -94t15 -129.5q0 -52 -6 -95t-22.5 -84.5t-43 -71t-69.5 -50t-100 -25.5v-14q63 0 108 -19t70.5 -48.5t40 -77.5t18.5 -93.5t4 -109.5q0 -86 -11 -149.5t-27.5 -108.5t-52.5 -74t-69.5 -46t-97 -25.5 t-115.5 -10.5t-143 -2h-344zM385 209q21 -2 39 -2q38 1 64 9q38 12 54.5 51.5t19.5 72t3 104.5v5q0 40 -1.5 68.5t-7 51t-10 37t-18 25t-23 15.5t-32.5 7.5t-38.5 3t-49.5 0.5v-448zM385 866q14 1 37.5 0.5t35.5 0.5t30 4.5t27 10t20.5 20t16.5 34t9 51t4 70.5q0 61 -4.5 93 t-22.5 59t-54 35q-25 6 -62 6q-17 0 -37 -1v-383z" />
<glyph unicode="C" d="M45 397v664q0 97 23.5 172t62 122.5t95 77.5t116.5 42t131 12q79 0 140.5 -10t118 -36.5t93.5 -69.5t58.5 -112t21.5 -161v-160h-340v201q0 114 -92 114q-88 0 -88 -114v-820q0 -114 88 -114q92 0 92 114l2 248h338v-192q0 -404 -432 -404q-71 0 -131 12t-116.5 42 t-95 77.5t-62 122.5t-23.5 172z" />
<glyph unicode="D" d="M45 0v1458h350q76 0 131.5 -3.5t108.5 -13t89 -25.5t68.5 -43t52 -63t34 -87t20.5 -115t6 -147v-521q0 -73 -8 -128.5t-29 -107.5t-58 -88t-92.5 -63t-136 -40t-186.5 -13h-350zM385 209q61 0 98 11t54.5 39.5t22.5 61t5 91.5v600q0 56 -1 86t-7.5 61.5t-17 45 t-31.5 25.5t-50 15.5t-73 3.5v-1040z" />
<glyph unicode="E" horiz-adv-x="757" d="M41 0v1458h704v-221h-364v-319h352v-222h-352v-475h364v-221h-704z" />
<glyph unicode="F" horiz-adv-x="757" d="M41 0v1458h704v-221h-364v-319h352v-222h-352v-696h-340z" />
<glyph unicode="G" d="M45 397v664q0 97 23.5 172t62.5 122.5t95.5 77.5t117 42t131.5 12q212 0 320.5 -94t111.5 -303l-2 -154h-340v203q0 114 -90 114t-90 -114v-820q0 -114 90 -114t90 114v195h-129v221h469v-735h-198l-19 74q-54 -59 -139 -82q-67 -21 -156 -21q-87 0 -149 20t-108 67.5 t-68.5 131.5t-22.5 207z" />
<glyph unicode="H" d="M45 0v1458h340v-540h180v540h340v-1458h-340v696h-180v-696h-340z" />
<glyph unicode="I" horiz-adv-x="417" d="M39 0v1458h340v-1458h-340z" />
<glyph unicode="J" d="M35 328v235h340v-211v-28.5t1.5 -28t4.5 -28.5t9.5 -23.5t15.5 -21t23.5 -12t33.5 -5.5t33.5 5.5t23.5 12t15.5 21t9.5 23.5t4.5 28.5t1.5 28v28.5v1106h340v-1087q0 -66 -9.5 -119.5t-37.5 -107.5t-74 -90.5t-124.5 -59.5t-184.5 -23q-32 0 -65.5 3t-77 13t-81.5 25.5 t-76 43.5t-65 64t-44 89.5t-17 118.5z" />
<glyph unicode="K" d="M45 0v1458h340v-661h4l215 661h324l-228 -643l230 -815h-336l-205 739h-4v-739h-340z" />
<glyph unicode="L" horiz-adv-x="757" d="M41 0v1458h340v-1237h369v-221h-709z" />
<glyph unicode="M" horiz-adv-x="1366" d="M43 0v1458h500l143 -1036h4l144 1036h489v-1458h-307v1245h-4l-197 -1245h-299l-197 1245h-4v-1245h-272z" />
<glyph unicode="N" horiz-adv-x="1024" d="M33 0v1458h471l217 -1061h4v1061h266v-1458h-436l-252 1219h-4v-1219h-266z" />
<glyph unicode="O" d="M45 397v664q0 97 23.5 172t62.5 122.5t95.5 77.5t117 42t131.5 12t131.5 -12t117 -42t95.5 -77.5t62.5 -122.5t23.5 -172v-664q0 -97 -23.5 -172t-62.5 -122.5t-95.5 -77.5t-117 -42t-131.5 -12t-131.5 12t-117 42t-95.5 77.5t-62.5 122.5t-23.5 172zM385 319 q0 -114 90 -114t90 114v820q0 114 -90 114t-90 -114v-820z" />
<glyph unicode="P" d="M45 0v1458h416q108 0 184.5 -14t137.5 -48t91.5 -96.5t30.5 -154.5v-266q0 -79 -33 -141t-89.5 -99.5t-125.5 -56.5t-147 -19h-125v-563h-340zM385 772h53q36 0 59 9t37 24t20.5 47.5t8.5 65.5t2 92q0 49 -1 78t-5.5 59.5t-12.5 47t-22 30.5t-35 19t-51 5h-53v-477z" />
<glyph unicode="Q" d="M45 397v664q0 97 23.5 172t62.5 122.5t95.5 77.5t117 42t131.5 12t131.5 -12t117 -42t95.5 -77.5t62.5 -122.5t23.5 -172v-664q0 -276 -184 -370v-37h164v-252q-81 0 -131 4.5t-95.5 17.5t-70 39t-39.5 68.5t-19 105.5q-18 -2 -55 -2q-71 0 -131.5 12t-117 42t-95.5 77.5 t-62.5 122.5t-23.5 172zM385 319q0 -114 90 -114t90 114v820q0 114 -90 114t-90 -114v-820z" />
<glyph unicode="R" d="M41 0v1458h342q76 0 131 -2.5t112.5 -11t96 -23.5t74.5 -40t57 -61t33 -86.5t12 -115.5q0 -288 -260 -332v-4q131 -3 195.5 -64t64.5 -210v-305q0 -130 51 -203h-342q-49 71 -49 203v309q0 72 -36.5 113t-86.5 41h-55v-666h-340zM381 874q111 0 144.5 40t33.5 149 q0 55 -6 86.5t-24.5 56t-53.5 34t-94 9.5v-375z" />
<glyph unicode="S" d="M45 297v270h340v-252q0 -63 20.5 -86.5t69.5 -23.5q44 0 67 24.5t23 85.5q0 67 -28.5 123.5t-74.5 99t-101.5 84.5t-111 89.5t-101.5 102t-74.5 133.5t-28.5 175q0 365 436 365q90 0 163.5 -16.5t133.5 -52.5t93.5 -100.5t33.5 -152.5v-229h-340v205q0 57 -20.5 84.5 t-69.5 27.5q-53 0 -71.5 -27t-18.5 -85q0 -49 28.5 -95.5t74.5 -86t101.5 -81.5t111 -91.5t101.5 -106.5t74.5 -136t28.5 -171q0 -402 -432 -402q-87 0 -159.5 16t-135 52t-98 101.5t-35.5 156.5z" />
<glyph unicode="T" horiz-adv-x="872" d="M29 1237v221h815v-221h-238v-1237h-340v1237h-237z" />
<glyph unicode="U" d="M45 449v1009h340v-1050q0 -38 0.5 -56.5t3 -47.5t8 -42.5t14.5 -29t24.5 -21.5t37.5 -6t38.5 6t26.5 21.5t15.5 29t8 42.5t3 47.5t0.5 56.5v1050h340v-1042q-6 -237 -102.5 -341t-329.5 -104q-87 0 -156 18t-113 44t-75.5 69.5t-47.5 80.5t-24.5 92t-10 88.5t-1.5 85.5z " />
<glyph unicode="V" d="M16 1458h365l82 -1124h4l147 1124h318l-244 -1458h-446z" />
<glyph unicode="W" horiz-adv-x="1441" d="M6 1458h348l72 -1038h4l131 1038h369l92 -1038h4l107 1038h301l-191 -1458h-397l-131 1124h-4l-121 -1124h-391z" />
<glyph unicode="X" d="M16 0l205 782l-203 676h371l117 -579h4l115 579h309l-203 -723l203 -735h-361l-116 584h-4l-127 -584h-310z" />
<glyph unicode="Y" d="M16 1458h332l125 -579h4l125 579h332l-289 -921v-537h-340v537z" />
<glyph unicode="Z" horiz-adv-x="757" d="M10 0v250l381 987h-381v221h738v-215l-398 -1022h398v-221h-738z" />
<glyph unicode="[" horiz-adv-x="606" d="M57 -127v1614h490v-230h-207v-1155h209v-229h-492z" />
<glyph unicode="\" horiz-adv-x="569" d="M-98 1487h159l607 -1516h-160z" />
<glyph unicode="]" horiz-adv-x="606" d="M57 102h209v1155h-207v230h490v-1614h-492v229z" />
<glyph unicode="^" horiz-adv-x="1228" d="M150 711l356 747h217l356 -747h-239l-226 508l-227 -508h-237z" />
<glyph unicode="_" horiz-adv-x="1024" d="M0 -61h1024v-140h-1024v140z" />
<glyph unicode="`" horiz-adv-x="417" d="M-80 1597h236l200 -288h-137z" />
<glyph unicode="a" horiz-adv-x="872" d="M45 225v174q0 62 25.5 111.5t66 82t89 59t97.5 49.5t89.5 47.5t66 59.5t25.5 79q0 86 -68 86q-67 0 -67 -86v-129h-324v108q0 85 33 149t90 100t124 53.5t144 17.5t144 -17.5t124 -53.5t90 -100t33 -149v-866h-323v137h-4q-33 -71 -85.5 -111t-142.5 -40 q-107 0 -167 62.5t-60 176.5zM369 301q0 -29 17 -45t42 -16q48 0 62 32t14 117v203q-11 -8 -37.5 -25t-38.5 -26.5t-28.5 -27t-23.5 -38.5t-7 -47v-127z" />
<glyph unicode="b" horiz-adv-x="872" d="M45 0v1458h324v-446h4q22 81 81.5 127.5t147.5 46.5q117 0 171 -70t54 -190v-647q0 -57 -11.5 -106t-36.5 -92.5t-72 -69t-111 -25.5q-201 0 -223 161h-4v-147h-324zM369 332q0 -37 18.5 -58.5t48.5 -21.5t49 21.5t19 58.5v508q0 37 -19 58.5t-49 21.5t-48.5 -21.5 t-18.5 -58.5v-508z" />
<glyph unicode="c" horiz-adv-x="872" d="M45 311v547q0 147 104 237.5t285 90.5q83 0 150.5 -16.5t123.5 -53.5t87.5 -103t31.5 -157v-98h-323v133q0 82 -68 82q-67 0 -67 -82v-610q0 -82 67 -82q68 0 68 82v182h323v-172q0 -158 -105 -231.5t-288 -73.5q-187 0 -288 80t-101 245z" />
<glyph unicode="d" horiz-adv-x="872" d="M45 279v647q0 120 54 190t171 70q88 0 148 -46.5t82 -127.5h4v446h323v-1458h-323v147h-4q-22 -161 -224 -161q-64 0 -111 25.5t-72 69t-36.5 92.5t-11.5 106zM369 332q0 -37 18.5 -58.5t48.5 -21.5t49 21.5t19 58.5v508q0 37 -19 58.5t-49 21.5t-48.5 -21.5t-18.5 -58.5 v-508z" />
<glyph unicode="e" horiz-adv-x="872" d="M45 297v559q0 159 101 244.5t290 85.5q82 0 149 -16.5t123 -53t87.5 -103t31.5 -157.5v-307h-458v-238q0 -53 17.5 -82.5t49.5 -29.5q68 0 68 112v152h323v-172q0 -158 -105 -231.5t-286 -73.5q-108 0 -194 31.5t-141.5 103.5t-55.5 176zM369 743h135v160q0 70 -68 70 q-67 0 -67 -70v-160z" />
<glyph unicode="f" horiz-adv-x="530" d="M14 958v213h72v76q0 36 12 71.5t36 67.5t65.5 52t95.5 20h207v-213q-56 0 -74 -17.5t-18 -56.5h92v-213h-92v-958h-324v958h-72z" />
<glyph unicode="g" horiz-adv-x="872" d="M45 -14v114h324v-77q0 -72 67 -72q68 0 68 72v290h-6q-7 -75 -63 -123.5t-134 -48.5q-256 0 -256 295v479q0 132 60.5 201.5t150.5 69.5q94 0 150 -41t92 -125h4v151h325v-1058q0 -93 -28.5 -163.5t-70 -109.5t-99 -63.5t-104.5 -31.5t-97 -7q-177 0 -280 74t-103 174z M369 496q0 -88 67 -88q68 0 68 88v335q0 89 -68 89q-67 0 -67 -89v-335z" />
<glyph unicode="h" horiz-adv-x="872" d="M45 0v1458h324v-432h4q52 160 229 160q225 0 225 -279v-907h-323v793q0 30 -1.5 47.5t-7.5 38.5t-20.5 31t-38.5 10q-19 0 -32 -8t-20 -18t-10.5 -29.5t-4 -33.5t-0.5 -38v-793h-324z" />
<glyph unicode="i" horiz-adv-x="417" d="M47 0v1171h324v-1171h-324zM47 1251v207h324v-207h-324z" />
<glyph unicode="j" horiz-adv-x="417" d="M-98 -49h43q61 0 81.5 24.5t20.5 106.5v1089h324v-1198q0 -130 -56.5 -182.5t-187.5 -52.5h-225v213zM47 1251v207h324v-207h-324z" />
<glyph unicode="k" horiz-adv-x="872" d="M45 0v1458h324v-821h4l166 534h313l-186 -524l202 -647h-329l-166 612h-4v-612h-324z" />
<glyph unicode="l" horiz-adv-x="417" d="M47 0v1458h324v-1458h-324z" />
<glyph unicode="m" horiz-adv-x="1290" d="M49 0v1171h311v-155h5q51 170 225 170q176 0 211 -170h4q13 77 74.5 123.5t148.5 46.5q213 0 213 -248v-938h-311v813q0 23 -2 39t-8 33t-20 26t-36 9q-18 0 -30 -6.5t-18.5 -16t-10 -25.5t-4 -28t-0.5 -31v-813h-312v813q0 23 -2 38.5t-7.5 33t-19.5 26.5t-36 9 t-35.5 -8.5t-19.5 -26.5t-7.5 -33t-1.5 -39v-813h-311z" />
<glyph unicode="n" horiz-adv-x="872" d="M45 0v1171h324v-145h4q49 160 235 160q107 0 163 -70t56 -198v-918h-323v813q0 23 -2 39t-8 33t-20 26t-36 9q-41 0 -55 -29.5t-14 -77.5v-813h-324z" />
<glyph unicode="o" horiz-adv-x="872" d="M45 297v559q0 159 101 244.5t290 85.5t290 -85.5t101 -244.5v-559q0 -104 -55.5 -176t-141.5 -103.5t-194 -31.5t-194 31.5t-141.5 103.5t-55.5 176zM369 281q0 -82 67 -82q68 0 68 82v610q0 82 -68 82q-67 0 -67 -82v-610z" />
<glyph unicode="p" horiz-adv-x="872" d="M45 -262v1433h324v-153h4q22 168 223 168q64 0 110.5 -25.5t72 -69.5t37 -94.5t11.5 -109.5v-647q0 -116 -54 -185t-171 -69q-89 0 -148 44t-81 124h-4v-416h-324zM369 332q0 -37 18.5 -58.5t48.5 -21.5t49 21.5t19 58.5v508q0 37 -19 58.5t-49 21.5t-48.5 -21.5 t-18.5 -58.5v-508z" />
<glyph unicode="q" horiz-adv-x="872" d="M45 240v647q0 59 11.5 109.5t37 94.5t72 69.5t110.5 25.5q202 0 224 -168h4v153h323v-1433h-323v416h-4q-22 -80 -81.5 -124t-148.5 -44q-117 0 -171 69t-54 185zM369 332q0 -37 18.5 -58.5t48.5 -21.5t49 21.5t19 58.5v508q0 37 -19 58.5t-49 21.5t-48.5 -21.5 t-18.5 -58.5v-508z" />
<glyph unicode="r" horiz-adv-x="872" d="M45 0v1171h324v-153h6q71 168 233 168q115 0 167 -64.5t52 -165.5v-417h-323v284q0 97 -68 97q-67 0 -67 -97v-823h-324z" />
<glyph unicode="s" horiz-adv-x="872" d="M45 276v187h324v-176q0 -88 67 -88q68 0 68 88q0 56 -25.5 99t-66 70.5t-89.5 52.5t-97.5 54t-89 65t-66 95.5t-25.5 136.5q0 166 104 246t275 80q189 0 296 -74.5t107 -218.5v-135h-323v127q0 88 -68 88q-67 0 -67 -88q0 -40 25 -73t65 -57t88 -48.5t96 -56t88 -70.5 t65 -101t25 -139q0 -174 -103.5 -264t-305.5 -90q-80 0 -145 16t-115.5 49.5t-78.5 90.5t-28 134z" />
<glyph unicode="t" horiz-adv-x="606" d="M16 958v213h109v211h324v-211h141v-213h-141v-639q0 -32 1.5 -47t8.5 -31.5t23 -22t44 -5.5h64v-213h-264q-115 0 -158 60t-43 184v714h-109z" />
<glyph unicode="u" horiz-adv-x="872" d="M45 254v917h324v-813q0 -18 1 -31t4.5 -28t10 -24.5t19 -16t30.5 -6.5q70 0 70 106v813h323v-1171h-323v145h-4q-48 -159 -236 -159q-107 0 -163 70t-56 198z" />
<glyph unicode="v" horiz-adv-x="872" d="M23 1171h327l109 -909h4l108 909h279l-211 -1171h-393z" />
<glyph unicode="w" horiz-adv-x="1366" d="M10 1171h324l86 -905h4l102 905h359l108 -905h4l72 905h285l-168 -1171h-395l-107 934h-4l-107 -934h-383z" />
<glyph unicode="x" horiz-adv-x="872" d="M8 0l197 610l-185 561h334l101 -452h4l100 452h289l-191 -561l207 -610h-340l-112 498h-4l-113 -498h-287z" />
<glyph unicode="y" horiz-adv-x="872" d="M25 1171h327l109 -809h4l108 809h273l-262 -1234q-20 -99 -87.5 -149t-174.5 -50h-261v213h168q32 0 45 7.5t13 25.5q0 11 -8 51z" />
<glyph unicode="z" horiz-adv-x="681" d="M6 0v213l301 745h-301v213h660v-180l-314 -778h324v-213h-670z" />
<glyph unicode="{" horiz-adv-x="681" d="M57 602v170q33 2 53 5.5t44 15t35.5 36.5t11.5 64v356q0 58 30 106.5t74.5 75.5t88.5 41.5t79 14.5h152v-156h-23q-39 0 -65 -10t-36.5 -28.5t-14 -34.5t-3.5 -39v-363q0 -47 -29 -81t-74.5 -51t-82.5 -24.5t-72 -9.5v-4q26 -2 38 -3.5t44 -7t50.5 -12t45.5 -20.5t42 -32 t26.5 -45.5t11.5 -61.5v-365q0 -21 3.5 -37t14 -34.5t36.5 -28.5t65 -10h23v-156h-152q-27 0 -61 8.5t-71.5 28t-68.5 46.5t-51 67.5t-20 87.5v370q0 39 -11.5 64t-35.5 36.5t-44 15t-53 5.5z" />
<glyph unicode="|" horiz-adv-x="454" d="M88 0v1458h279v-1458h-279z" />
<glyph unicode="}" horiz-adv-x="681" d="M57 29h23q39 0 65 10t36.5 28.5t14 34.5t3.5 37v365q0 34 11.5 61.5t26.5 45.5t42 32t45.5 20.5t50.5 12t44 7t38 3.5v4q-35 2 -72 9.5t-82.5 24.5t-74.5 51t-29 81v363q0 23 -3.5 39t-14 34.5t-36.5 28.5t-65 10h-23v156h152q35 0 79 -14.5t88.5 -41.5t74.5 -75.5 t30 -106.5v-356q0 -39 11.5 -64t35.5 -36.5t44 -15t53 -5.5v-170q-33 -2 -53 -5.5t-44 -15t-35.5 -36.5t-11.5 -64v-370q0 -47 -20 -87.5t-51 -67.5t-68.5 -46.5t-71.5 -28t-61 -8.5h-152v156z" />
<glyph unicode="~" horiz-adv-x="1228" d="M141 524q92 176 256 176q83 0 228 -65q14 -6 44.5 -20t47.5 -21t40.5 -16t42 -13t34.5 -4q29 0 55 11.5t49.5 36.5t38 45t37.5 55l73 -197q-23 -32 -38.5 -52t-41 -46.5t-49.5 -41t-57 -25.5t-70 -11q-85 0 -208 67q-128 72 -236 72q-105 0 -172 -147z" />
<glyph unicode="&#xa7;" horiz-adv-x="872" d="M57 721q0 98 29.5 160.5t103.5 124.5q-71 48 -71 180q0 142 96.5 221.5t241.5 79.5q134 5 232.5 -79.5t84.5 -217.5h-242q0 47 -18 74q-20 30 -63 30q-37 0 -64 -21.5t-27 -58.5q0 -34 25 -68t65 -65t88.5 -64.5t97.5 -72.5t89 -82t65 -101t25 -122q0 -75 -36 -140.5 t-99 -109.5q0 -1 9 -8t21.5 -22t25 -37t21.5 -60.5t9 -85.5q0 -146 -95.5 -226.5t-244.5 -80.5q-163 0 -259.5 85.5t-82.5 244.5h235q2 -67 25 -101.5t86 -34.5q36 0 61 26t25 63t-25.5 73t-66 67.5t-89.5 64.5t-97.5 71t-89 79.5t-66 96.5t-25.5 117zM283 772q0 -36 48 -84 t116.5 -98.5t84.5 -67.5q21 14 36.5 38t15.5 48q0 32 -31.5 69.5t-70.5 66t-84.5 62.5t-63.5 54q-51 -33 -51 -88z" />
<glyph unicode="&#xa9;" horiz-adv-x="1638" d="M27 729q0 141 42.5 263t117.5 212t175 154.5t216.5 96.5t240.5 32q123 0 239.5 -32t217 -96.5t175.5 -154t118 -212t43 -263.5t-43 -263.5t-118 -212t-175.5 -154t-217 -96.5t-239.5 -32q-124 0 -240.5 32t-216.5 96.5t-175 154.5t-117.5 212t-42.5 263zM279 729 q0 -124 42.5 -231t115 -180.5t172 -115.5t210.5 -42q109 0 208 42t172.5 115.5t117 180.5t43.5 231t-43.5 231.5t-117 181t-172.5 115t-208 41.5q-111 0 -210 -41.5t-172 -115t-115.5 -180.5t-42.5 -232zM428 735q0 192 114 315.5t304 123.5q142 0 240 -81.5t122 -232.5 h-186q-4 65 -51 97t-121 32q-87 -3 -140 -70.5t-53 -179.5q0 -107 54 -178.5t139 -71.5q74 0 121 32t51 97h195q-22 -151 -124.5 -234t-242.5 -83q-188 0 -305 124t-117 310z" />
<glyph unicode="&#xab;" horiz-adv-x="757" d="M31 514v274l309 312v-295l-154 -154l154 -153v-295zM418 514v274l309 312v-295l-154 -154l154 -153v-295z" />
<glyph unicode="&#xac;" horiz-adv-x="1228" d="M94 692v248h1041v-608h-248v360h-793z" />
<glyph unicode="&#xad;" horiz-adv-x="530" d="M37 530v242h455v-242h-455z" />
<glyph unicode="&#xae;" horiz-adv-x="1638" d="M27 727q0 141 42.5 263.5t117.5 212.5t175 154.5t216.5 97t240.5 32.5q123 0 239.5 -32.5t217 -97t175.5 -154.5t118 -212.5t43 -263.5q0 -174 -66 -319t-177 -239.5t-253 -146t-297 -51.5q-124 0 -240.5 32t-216.5 96.5t-175 154t-117.5 211.5t-42.5 262zM279 727 q0 -124 42.5 -230.5t115.5 -180t172 -115t210 -41.5q109 0 208 41.5t172.5 114.5t117 180t43.5 231t-43.5 232t-117 181.5t-172.5 115.5t-208 42q-111 0 -210 -42t-172 -115.5t-115.5 -181t-42.5 -232.5zM506 319v820h311q175 0 261.5 -55t86.5 -195q0 -110 -58.5 -159.5 t-172.5 -55.5l211 -355h-191l-188 343h-70v-343h-190zM696 809h160q58 0 84.5 19.5t26.5 70.5t-26.5 70.5t-84.5 19.5l-160 2v-182z" />
<glyph unicode="&#xb0;" horiz-adv-x="819" d="M117 1165q0 123 85 208t208 85t207.5 -85t84.5 -208t-84.5 -208t-207.5 -85t-208 85t-85 208zM256 1165q0 -77 39 -119t115 -42t114.5 42t38.5 119q0 78 -39 120t-114 42q-76 0 -115 -42.5t-39 -119.5z" />
<glyph unicode="&#xb1;" horiz-adv-x="1228" d="M94 66v278h1041v-278h-1041zM94 586v278h381v242h279v-242h381v-278h-381v-211h-279v211h-381z" />
<glyph unicode="&#xb5;" horiz-adv-x="872" d="M45 -262v1433h324v-813q0 -18 1 -31t4.5 -28t10 -24.5t19 -16t30.5 -6.5q70 0 70 106v813h323v-1171h-323v145h-4q-30 -109 -131 -159v-248h-324z" />
<glyph unicode="&#xb6;" horiz-adv-x="1269" d="M2 1094q0 107 37.5 180.5t109 112.5t157 55t200.5 16h762v-184h-125v-1641h-258v1641h-174v-1641h-258v1110q-217 0 -334 92.5t-117 258.5z" />
<glyph unicode="&#xb7;" horiz-adv-x="475" d="M68 586q0 72 49 122t121 50q70 0 120 -50.5t50 -121.5q0 -69 -50.5 -118.5t-119.5 -49.5q-71 0 -120.5 49t-49.5 119z" />
<glyph unicode="&#xbb;" horiz-adv-x="757" d="M31 203v295l153 153l-153 154v295l309 -312v-274zM418 203v295l153 153l-153 154v295l309 -312v-274z" />
<glyph unicode="&#x401;" horiz-adv-x="757" d="M41 0v1458h704v-221h-364v-319h352v-222h-352v-475h364v-221h-704zM94 1567v252h230v-252h-230zM434 1567v252h230v-252h-230z" />
<glyph unicode="&#x402;" horiz-adv-x="1153" d="M10 1237v221h815v-221h-237v-350q41 40 104.5 63t132.5 23q118 0 200.5 -73t82.5 -220v-416q0 -147 -82.5 -220t-200.5 -73h-145v234q52 0 70 23.5t18 90.5v326q0 35 -18.5 53.5t-49.5 18.5q-55 0 -112 -51v-666h-340v1237h-238z" />
<glyph unicode="&#x403;" horiz-adv-x="757" d="M45 0v1458h705v-221h-365v-1237h-340zM205 1544l201 289h235l-299 -289h-137z" />
<glyph unicode="&#x404;" d="M45 397v664q0 97 23.5 172t62 122.5t95 77.5t116.5 42t131 12q79 0 140.5 -10t118 -36.5t93.5 -69.5t58.5 -112t21.5 -161v-164h-340v205q0 114 -92 114q-88 0 -88 -114v-275h260v-233h-260v-312q0 -114 88 -114q92 0 92 114v242h340v-186q0 -404 -432 -404 q-71 0 -131 12t-116.5 42t-95 77.5t-62 122.5t-23.5 172z" />
<glyph unicode="&#x405;" d="M45 297v270h340v-252q0 -63 20.5 -86.5t69.5 -23.5q44 0 67 24.5t23 85.5q0 67 -28.5 123.5t-74.5 99t-101.5 84.5t-111 89.5t-101.5 102t-74.5 133.5t-28.5 175q0 365 436 365q90 0 163.5 -16.5t133.5 -52.5t93.5 -100.5t33.5 -152.5v-229h-340v205q0 57 -20.5 84.5 t-69.5 27.5q-53 0 -71.5 -27t-18.5 -85q0 -49 28.5 -95.5t74.5 -86t101.5 -81.5t111 -91.5t101.5 -106.5t74.5 -136t28.5 -171q0 -402 -432 -402q-87 0 -159.5 16t-135 52t-98 101.5t-35.5 156.5z" />
<glyph unicode="&#x406;" horiz-adv-x="417" d="M39 0v1458h340v-1458h-340z" />
<glyph unicode="&#x407;" horiz-adv-x="417" d="M-76 1567v252h230v-252h-230zM39 0v1458h340v-1458h-340zM264 1567v252h230v-252h-230z" />
<glyph unicode="&#x408;" d="M35 328v235h340v-211v-28.5t1.5 -28t4.5 -28.5t9.5 -23.5t15.5 -21t23.5 -12t33.5 -5.5t33.5 5.5t23.5 12t15.5 21t9.5 23.5t4.5 28.5t1.5 28v28.5v1106h340v-1087q0 -66 -9.5 -119.5t-37.5 -107.5t-74 -90.5t-124.5 -59.5t-184.5 -23q-32 0 -65.5 3t-77 13t-81.5 25.5 t-76 43.5t-65 64t-44 89.5t-17 118.5z" />
<glyph unicode="&#x409;" horiz-adv-x="1501" d="M-4 -29v271q75 0 91.5 83.5t16.5 334.5v8v790h832v-563h125q105 0 192 -32t145 -105t58 -178v-267q0 -92 -30.5 -154.5t-91.5 -96.5t-137.5 -48t-184.5 -14h-416v1237h-180v-569q0 -100 -1 -151t-6 -132t-16 -122t-30 -98t-50.5 -85t-74.5 -57t-104 -40.5t-138 -11.5z M936 209h53q36 0 59 9.5t37 24.5t20.5 48t8.5 66t2 92t-2 91.5t-8.5 65t-20.5 47.5t-37 24t-59 9h-53v-477z" />
<glyph unicode="&#x40a;" horiz-adv-x="1470" d="M45 0v1458h340v-551h180v551h340v-563h125q105 0 192 -32t145 -105t58 -178v-267q0 -92 -30.5 -154.5t-91.5 -96.5t-137.5 -48t-184.5 -14h-416v686h-180v-686h-340zM905 209h53q36 0 59 9.5t37 24.5t20.5 48t8.5 66t2 92t-2 91.5t-8.5 65t-20.5 47.5t-37 24t-59 9h-53 v-477z" />
<glyph unicode="&#x40b;" horiz-adv-x="1153" d="M10 1237v221h815v-221h-237v-350q41 40 104.5 63t132.5 23q118 0 200.5 -73t82.5 -220v-680h-340v645q0 35 -18.5 53.5t-49.5 18.5q-55 0 -112 -51v-666h-340v1237h-238z" />
<glyph unicode="&#x40c;" d="M45 0v1458h340v-661h4l215 661h324l-228 -643l230 -815h-336l-205 739h-4v-739h-340zM287 1544l200 289h236l-299 -289h-137z" />
<glyph unicode="&#x40e;" horiz-adv-x="909" d="M-10 1458h332l124 -825h5l124 825h332l-358 -1458h-340l70 291zM160 1804h114q19 -112 195 -112q65 0 113 26.5t59 85.5h119q0 -134 -86 -203t-225 -69q-125 0 -207 73t-82 199z" />
<glyph unicode="&#x40f;" d="M45 0v1458h340v-1237h176v1237h340v-1458h-270v-221h-314v221h-272z" />
<glyph unicode="&#x410;" d="M18 0l248 1458h467l189 -1458h-338l-39 358h-185l-55 -358h-287zM397 580h123l-59 649h-4z" />
<glyph unicode="&#x411;" d="M45 0v1458h823v-221h-483v-342h125q105 0 192 -32t145 -105t58 -178v-267q0 -92 -30.5 -154.5t-91.5 -96.5t-137.5 -48t-184.5 -14h-416zM385 209h53q36 0 59 9.5t37 24.5t20.5 48t8.5 66t2 92t-2 91.5t-8.5 65t-20.5 47.5t-37 24t-59 9h-53v-477z" />
<glyph unicode="&#x412;" d="M45 0v1458h344q79 0 121 -1t106 -8t98.5 -20t77 -38.5t63 -63t35.5 -94t15 -129.5q0 -52 -6 -95t-22.5 -84.5t-43 -71t-69.5 -50t-100 -25.5v-14q63 0 108 -19t70.5 -48.5t40 -77.5t18.5 -93.5t4 -109.5q0 -86 -11 -149.5t-27.5 -108.5t-52.5 -74t-69.5 -46t-97 -25.5 t-115.5 -10.5t-143 -2h-344zM385 209q65 -6 103.5 6.5t54.5 52t19 72t3 104.5v5q0 40 -1.5 68.5t-7 51t-10 37t-18 25t-23 15.5t-32.5 7.5t-38.5 3t-49.5 0.5v-448zM385 866q14 1 37.5 1t35.5 0.5t30 4t27 10t20.5 20t16.5 34t9 51t4 70.5q0 61 -4.5 93t-22.5 59t-54.5 35.5 t-98.5 4.5v-383z" />
<glyph unicode="&#x413;" horiz-adv-x="757" d="M45 0v1458h705v-221h-365v-1237h-340z" />
<glyph unicode="&#x414;" horiz-adv-x="985" d="M-4 -221v442q20 0 29.5 2.5t25 15.5t23 44t15.5 83t11.5 138t3.5 205v749h832v-1237h49v-442h-313v221h-363v-221h-313zM350 221h246v1016h-180v-528q0 -387 -55 -476q-6 -10 -11 -12z" />
<glyph unicode="&#x415;" horiz-adv-x="757" d="M41 0v1458h704v-221h-364v-319h352v-222h-352v-475h364v-221h-704z" />
<glyph unicode="&#x416;" horiz-adv-x="1441" d="M20 0l216 815l-213 643h323l201 -661h4v661h340v-661h4l201 661h323l-213 -643l215 -815h-336l-190 739h-4v-739h-340v739h-4l-191 -739h-336z" />
<glyph unicode="&#x417;" d="M47 311v250h340v-246q0 -110 86 -110q88 0 88 110v185q0 31 -5 53.5t-17 36.5t-24 22.5t-33.5 12.5t-38.5 5t-44 1h-94v233h111q63 0 104 30t41 99v170q0 38 -24 64t-64 26q-18 0 -32.5 -5.5t-23.5 -13t-15 -22.5t-9 -25t-4.5 -31t-1.5 -29.5v-30.5v-162h-340v209 q0 80 29 143t72.5 100t102.5 60.5t111.5 32t106.5 8.5q66 0 126 -10t117 -34.5t98 -61t66 -93t25 -127.5v-92q0 -147 -53 -216t-158 -93l-2 2v-12q70 -10 114.5 -35t71.5 -82t27 -148v-161q0 -92 -34 -161t-94 -110.5t-136.5 -61.5t-167.5 -20q-422 0 -422 340z" />
<glyph unicode="&#x418;" horiz-adv-x="1024" d="M45 0v1458h279v-1036h4l184 1036h467v-1458h-279v1194h-4l-219 -1194h-432z" />
<glyph unicode="&#x419;" horiz-adv-x="1024" d="M45 0v1458h279v-1036h4l184 1036h467v-1458h-279v1194h-4l-219 -1194h-432zM193 1804h114q19 -112 195 -112q66 0 113.5 26.5t58.5 85.5h119q0 -134 -86.5 -203t-225.5 -69q-125 0 -206.5 73t-81.5 199z" />
<glyph unicode="&#x41a;" d="M45 0v1458h340v-661h4l215 661h324l-228 -643l230 -815h-336l-205 739h-4v-739h-340z" />
<glyph unicode="&#x41b;" horiz-adv-x="985" d="M-4 -29v271q75 0 91.5 83.5t16.5 334.5v8v790h832v-1458h-340v1237h-180v-569q0 -100 -1 -151t-6 -132t-16 -122t-30 -98t-50.5 -85t-74.5 -57t-104 -40.5t-138 -11.5z" />
<glyph unicode="&#x41c;" horiz-adv-x="1366" d="M43 0v1458h500l143 -1036h4l144 1036h489v-1458h-307v1229h-4l-197 -1229h-299l-197 1229h-4v-1229h-272z" />
<glyph unicode="&#x41d;" d="M45 0v1458h340v-540h180v540h340v-1458h-340v696h-180v-696h-340z" />
<glyph unicode="&#x41e;" d="M45 397v664q0 97 23.5 172t62.5 122.5t95.5 77.5t117 42t131.5 12t131.5 -12t117 -42t95.5 -77.5t62.5 -122.5t23.5 -172v-664q0 -97 -23.5 -172t-62.5 -122.5t-95.5 -77.5t-117 -42t-131.5 -12t-131.5 12t-117 42t-95.5 77.5t-62.5 122.5t-23.5 172zM385 319 q0 -114 90 -114t90 114v820q0 114 -90 114t-90 -114v-820z" />
<glyph unicode="&#x41f;" d="M45 0v1458h860v-1458h-340v1237h-180v-1237h-340z" />
<glyph unicode="&#x420;" d="M45 0v1458h416q108 0 184.5 -14t137.5 -48t91.5 -96.5t30.5 -154.5v-266q0 -79 -33 -141t-89.5 -99.5t-125.5 -56.5t-147 -19h-125v-563h-340zM385 772h53q36 0 59 9t37 24t20.5 47.5t8.5 65.5t2 92q0 49 -1 78t-5.5 59.5t-12.5 47t-22 30.5t-35 19t-51 5h-53v-477z" />
<glyph unicode="&#x421;" d="M45 397v664q0 97 23.5 172t62 122.5t95 77.5t116.5 42t131 12q79 0 140.5 -10t118 -36.5t93.5 -69.5t58.5 -112t21.5 -161v-160h-340v201q0 114 -92 114q-88 0 -88 -114v-820q0 -114 88 -114q92 0 92 114l2 248h338v-192q0 -404 -432 -404q-71 0 -131 12t-116.5 42 t-95 77.5t-62 122.5t-23.5 172z" />
<glyph unicode="&#x422;" horiz-adv-x="833" d="M10 1237v221h815v-221h-237v-1237h-340v1237h-238z" />
<glyph unicode="&#x423;" horiz-adv-x="909" d="M-10 1458h332l124 -825h5l124 825h332l-358 -1458h-340l70 291z" />
<glyph unicode="&#x424;" horiz-adv-x="1441" d="M39 645v111q0 111 10 188.5t36.5 134t62 89.5t97.5 52.5t131.5 26t174.5 6.5v205h340v-205q105 0 174.5 -6.5t131.5 -26t97.5 -52.5t62 -89.5t36.5 -134t10 -188.5v-111q0 -63 -5.5 -111.5t-19.5 -96t-38.5 -82t-63 -64t-92 -48t-127 -28.5t-166.5 -10v-205h-340v205 q-93 0 -166.5 10t-127 28.5t-92 48t-63 64t-38.5 82t-19.5 96t-5.5 111.5zM379 616q0 -35 1 -55.5t4 -45t10 -37.5t19.5 -27.5t31 -21t45 -11t61.5 -4.5v630q-27 0 -47 -1t-37 -5.5t-29 -7.5t-22 -14t-16 -17t-10 -24.5t-6 -29.5t-3.5 -39t-1.5 -45v-54v-191zM891 414 q35 0 61.5 4.5t45 11t31 21t19.5 27.5t10 37.5t4 45t1 55.5v191v54t-1.5 45t-3.5 39t-6 29.5t-10 24.5t-16 17t-22 14t-29 7.5t-37 5.5t-47 1v-630z" />
<glyph unicode="&#x425;" d="M16 0l205 782l-203 676h371l117 -579h4l115 579h309l-203 -723l203 -735h-361l-116 584h-4l-127 -584h-310z" />
<glyph unicode="&#x426;" d="M45 0v1458h340v-1237h176v1237h340v-1237h49v-442h-313v221h-592z" />
<glyph unicode="&#x427;" d="M45 903v555h340v-520q0 -45 28.5 -62.5t70.5 -5.5t81 48v540h340v-1458h-340v696q-42 -41 -107.5 -65t-136 -21t-133 30t-103 95.5t-40.5 167.5z" />
<glyph unicode="&#x428;" horiz-adv-x="1441" d="M45 0v1458h340v-1237h166v1237h340v-1237h166v1237h340v-1458h-1352z" />
<glyph unicode="&#x429;" horiz-adv-x="1441" d="M45 0v1458h340v-1237h164v1237h340v-1237h164v1237h340v-1237h49v-442h-314v221h-1083z" />
<glyph unicode="&#x42a;" horiz-adv-x="1024" d="M0 1237v221h461v-563h125q105 0 192 -32t145 -105t58 -178v-267q0 -92 -30.5 -154.5t-91.5 -96.5t-137.5 -48t-184.5 -14h-416v1237h-121zM461 209h53q36 0 59 9.5t37 24.5t20.5 48t8.5 66t2 92t-2 91.5t-8.5 65t-20.5 47.5t-37 24t-59 9h-53v-477z" />
<glyph unicode="&#x42b;" horiz-adv-x="1366" d="M45 0v1458h340v-563h125q105 0 192 -32t145 -105t58 -178v-267q0 -92 -30.5 -154.5t-91.5 -96.5t-137.5 -48t-184.5 -14h-416zM385 209h53q36 0 59 9.5t37 24.5t20.5 48t8.5 66t2 92t-2 91.5t-8.5 65t-20.5 47.5t-37 24t-59 9h-53v-477zM981 0v1458h340v-1458h-340z" />
<glyph unicode="&#x42c;" d="M45 0v1458h340v-563h125q105 0 192 -32t145 -105t58 -178v-267q0 -92 -30.5 -154.5t-91.5 -96.5t-137.5 -48t-184.5 -14h-416zM385 209h53q36 0 59 9.5t37 24.5t20.5 48t8.5 66t2 92t-2 91.5t-8.5 65t-20.5 47.5t-37 24t-59 9h-53v-477z" />
<glyph unicode="&#x42d;" d="M45 375v186h340v-242q0 -114 92 -114q88 0 88 114v312h-260v233h260v275q0 114 -88 114q-92 0 -92 -114v-205h-340v164q0 92 21.5 161t58.5 112t93.5 69.5t118 36.5t140.5 10q71 0 131 -12t116.5 -42t95 -77.5t62 -122.5t23.5 -172v-664q0 -97 -23.5 -172t-62 -122.5 t-95 -77.5t-116.5 -42t-131 -12q-432 0 -432 404z" />
<glyph unicode="&#x42e;" horiz-adv-x="1441" d="M45 0v1458h340v-540h152v143q0 97 23.5 172t62.5 122.5t95.5 77.5t117 42t131.5 12t131.5 -12t117 -42t95.5 -77.5t62.5 -122.5t23.5 -172v-664q0 -97 -23.5 -172t-62.5 -122.5t-95.5 -77.5t-117 -42t-131.5 -12t-131.5 12t-117 42t-95.5 77.5t-62.5 122.5t-23.5 172v299 h-152v-696h-340zM877 319q0 -114 90 -114t90 114v820q0 114 -90 114t-90 -114v-820z" />
<glyph unicode="&#x42f;" d="M0 0q51 73 51 203v305q0 149 64.5 210t195.5 64v4q-260 44 -260 332q0 65 12 115.5t33 86.5t57 61t74.5 40t96 23.5t112.5 11t131 2.5h342v-1458h-340v666h-55q-50 0 -86.5 -41t-36.5 -113v-309q0 -132 -49 -203h-342zM391 1063q0 -109 33.5 -149t144.5 -40v375 q-59 0 -94 -9.5t-53.5 -34t-24.5 -56t-6 -86.5z" />
<glyph unicode="&#x430;" horiz-adv-x="872" d="M45 225v174q0 62 25.5 111.5t66 82t89 59t97.5 49.5t89.5 47.5t66 59.5t25.5 79q0 86 -68 86q-67 0 -67 -86v-129h-324v108q0 85 33 149t90 100t124 53.5t144 17.5t144 -17.5t124 -53.5t90 -100t33 -149v-866h-323v137h-4q-33 -71 -85.5 -111t-142.5 -40 q-107 0 -167 62.5t-60 176.5zM369 301q0 -29 17 -45t42 -16q48 0 62 32t14 117v203q-11 -8 -37.5 -25t-38.5 -26.5t-28.5 -27t-23.5 -38.5t-7 -47v-127z" />
<glyph unicode="&#x431;" horiz-adv-x="872" d="M45 297v715q0 57 2 99t9 98t20 97t37.5 86t58 75t84 54t113.5 33q64 10 95.5 15.5t71.5 16t57 23t17 29.5h217q0 -171 -78.5 -247t-250.5 -99q-119 -16 -165 -83.5t-46 -196.5h4q22 79 91 126.5t159 47.5q123 0 204.5 -74t81.5 -186v-629q0 -104 -55.5 -176 t-141.5 -103.5t-194 -31.5t-194 31.5t-141.5 103.5t-55.5 176zM369 281q0 -82 67 -82q68 0 68 82v610q0 82 -68 82q-67 0 -67 -82v-610z" />
<glyph unicode="&#x432;" horiz-adv-x="864" d="M45 0v1171h324q69 0 106 -1t94 -6.5t87.5 -16t68.5 -31t56.5 -50.5t32 -75t13.5 -104q0 -138 -47 -195t-145 -76v-8q115 -13 153.5 -70t38.5 -204q0 -48 -4 -87.5t-14 -71t-21 -55.5t-31.5 -42.5t-39 -31.5t-50.5 -21.5t-58.5 -13.5t-70.5 -7.5t-79 -3t-90 -0.5h-324z M369 203q60 1 86.5 12t37.5 42.5t11 102.5q0 99 -24.5 125.5t-110.5 26.5v-309zM369 705q90 0 112.5 23t22.5 112q0 78 -26 108.5t-109 20.5v-264z" />
<glyph unicode="&#x433;" horiz-adv-x="681" d="M45 0v1171h617v-213h-293v-958h-324z" />
<glyph unicode="&#x434;" horiz-adv-x="909" d="M-2 213q20 0 32 4.5t27 26.5t23 64t14 120.5t6 192.5v550h762v-958h49v-434h-297v221h-319v-221h-297v434zM340 213h199v745h-136v-337q0 -181 -15.5 -283t-31.5 -114z" />
<glyph unicode="&#x435;" horiz-adv-x="872" d="M45 297v559q0 159 101 244.5t290 85.5q82 0 149 -16.5t123 -53t87.5 -103t31.5 -157.5v-307h-458v-238q0 -53 17.5 -82.5t49.5 -29.5q68 0 68 112v152h323v-172q0 -158 -105 -231.5t-286 -73.5q-108 0 -194 31.5t-141.5 103.5t-55.5 176zM369 743h135v160q0 70 -68 70 q-67 0 -67 -70v-160z" />
<glyph unicode="&#x436;" horiz-adv-x="1290" d="M4 0l182 647l-166 524h314l145 -534h4v534h324v-534h4l145 534h314l-166 -524l182 -647h-330l-145 612h-4v-612h-324v612h-4l-145 -612h-330z" />
<glyph unicode="&#x437;" horiz-adv-x="872" d="M45 291v172h324v-182q0 -82 67 -82q68 0 68 82v127q0 69 -27 86.5t-94 17.5h-98v193h94q33 0 49.5 1.5t37 8.5t29.5 24t9 45v107q0 82 -68 82q-67 0 -67 -82v-133h-324v98q0 91 31.5 157t87.5 103t123.5 53.5t150.5 16.5q183 0 286 -88t103 -240q0 -115 -48.5 -169 t-143.5 -73v-8q95 -11 143.5 -59.5t48.5 -153.5v-84q0 -165 -101 -245t-288 -80q-183 0 -288 73.5t-105 231.5z" />
<glyph unicode="&#x438;" horiz-adv-x="931" d="M45 0v1171h256v-792h4l178 792h412v-1171h-256v926h-4l-209 -926h-381z" />
<glyph unicode="&#x439;" horiz-adv-x="931" d="M45 0v1171h256v-792h4l178 792h412v-1171h-256v926h-4l-209 -926h-381zM166 1583h115q19 -113 194 -113q65 0 113 27t59 86h119q0 -134 -86 -203t-225 -69q-125 0 -207 73t-82 199z" />
<glyph unicode="&#x43a;" horiz-adv-x="872" d="M45 0v1171h324v-534h4l166 534h313l-186 -524l202 -647h-329l-166 612h-4v-612h-324z" />
<glyph unicode="&#x43b;" horiz-adv-x="909" d="M0 -14v252q66 0 84 71t18 277v585h762v-1171h-323v958h-135v-372q0 -87 -1.5 -138t-9.5 -123t-23.5 -114t-45 -90.5t-72 -74t-107 -43t-147.5 -17.5z" />
<glyph unicode="&#x43c;" horiz-adv-x="1290" d="M45 0v1171h469l131 -776h4l133 776h461v-1171h-295v946h-2l-182 -946h-272l-181 946h-4v-946h-262z" />
<glyph unicode="&#x43d;" horiz-adv-x="872" d="M45 0v1171h324v-454h135v454h323v-1171h-323v504h-135v-504h-324z" />
<glyph unicode="&#x43e;" horiz-adv-x="872" d="M45 297v559q0 159 101 244.5t290 85.5t290 -85.5t101 -244.5v-559q0 -104 -55.5 -176t-141.5 -103.5t-194 -31.5t-194 31.5t-141.5 103.5t-55.5 176zM369 281q0 -82 67 -82q68 0 68 82v610q0 82 -68 82q-67 0 -67 -82v-610z" />
<glyph unicode="&#x43f;" horiz-adv-x="872" d="M45 0v1171h782v-1171h-323v958h-135v-958h-324z" />
<glyph unicode="&#x440;" horiz-adv-x="872" d="M45 -262v1433h324v-153h4q22 168 223 168q64 0 110.5 -25.5t72 -69.5t37 -94.5t11.5 -109.5v-647q0 -116 -54 -185t-171 -69q-89 0 -148 44t-81 124h-4v-416h-324zM369 332q0 -37 18.5 -58.5t48.5 -21.5t49 21.5t19 58.5v508q0 37 -19 58.5t-49 21.5t-48.5 -21.5 t-18.5 -58.5v-508z" />
<glyph unicode="&#x441;" horiz-adv-x="872" d="M45 311v547q0 147 104 237.5t285 90.5q83 0 150.5 -16.5t123.5 -53.5t87.5 -103t31.5 -157v-98h-323v133q0 82 -68 82q-67 0 -67 -82v-610q0 -82 67 -82q68 0 68 82v182h323v-172q0 -158 -105 -231.5t-288 -73.5q-187 0 -288 80t-101 245z" />
<glyph unicode="&#x442;" horiz-adv-x="681" d="M14 958v213h654v-213h-166v-958h-324v958h-164z" />
<glyph unicode="&#x443;" horiz-adv-x="833" d="M6 1171h328l108 -809h4l109 809h272l-262 -1234q-20 -99 -87.5 -149t-174.5 -50h-260v213h168q32 0 44.5 7.5t12.5 25.5q0 11 -8 51z" />
<glyph unicode="&#x444;" horiz-adv-x="1290" d="M45 240v647q0 59 11.5 109.5t37 94.5t72 69.5t110.5 25.5q92 0 140.5 -39t60.5 -129h4v440h318v-446h4q48 174 217 174q117 0 171 -70t54 -190v-647q0 -57 -11.5 -106t-36.5 -92.5t-72 -69t-111 -25.5q-189 0 -211 161h-4v-409h-318v416h-4q-23 -83 -72 -125.5 t-135 -42.5q-117 0 -171 69t-54 185zM365 332q0 -80 59 -80q57 0 57 80v508q0 80 -57 80q-59 0 -59 -80v-508zM799 332q0 -37 18.5 -58.5t48.5 -21.5q60 0 60 80v508q0 80 -60 80q-30 0 -48.5 -21.5t-18.5 -58.5v-508z" />
<glyph unicode="&#x445;" horiz-adv-x="872" d="M8 0l197 610l-185 561h334l101 -452h4l100 452h289l-191 -561l207 -610h-340l-112 498h-4l-113 -498h-287z" />
<glyph unicode="&#x446;" horiz-adv-x="872" d="M45 0v1171h324v-958h133v958h323v-958h49v-434h-296v221h-533z" />
<glyph unicode="&#x447;" horiz-adv-x="872" d="M45 717v454h324v-454q0 -35 26.5 -45t59 4t49.5 41v454h323v-1171h-323v504q-36 -33 -101.5 -56.5t-132.5 -23.5q-117 0 -171 74t-54 219z" />
<glyph unicode="&#x448;" horiz-adv-x="1290" d="M45 0v1171h324v-958h114v958h324v-958h115v958h323v-1171h-1200z" />
<glyph unicode="&#x449;" horiz-adv-x="1290" d="M45 0v1171h324v-958h112v958h324v-958h113v958h323v-958h49v-434h-297v221h-948z" />
<glyph unicode="&#x44a;" d="M0 958v213h446v-434q76 0 126 -2t100.5 -8.5t81 -17t59.5 -30t44.5 -45.5t27.5 -65t16 -87t4 -113q0 -83 -7.5 -139.5t-30 -99t-53 -67t-86 -39.5t-119.5 -19.5t-163 -4.5h-323v958h-123zM446 203q88 0 112 29.5t24 136.5q0 104 -26.5 135t-109.5 31v-332z" />
<glyph unicode="&#x44b;" horiz-adv-x="1290" d="M45 0v1171h324l-2 -434q76 0 126 -2t101 -8.5t81.5 -17t59.5 -30t44 -45.5t27.5 -65t16.5 -87t4 -113q0 -83 -7.5 -139.5t-29.5 -99t-53 -67t-86 -39.5t-119 -19.5t-163 -4.5h-324zM369 203q88 0 111.5 29.5t23.5 136.5q0 104 -26 135t-109 31v-332zM922 0v1171h323 v-1171h-323z" />
<glyph unicode="&#x44c;" horiz-adv-x="864" d="M45 0v1171h324l-2 -434q76 0 126 -2t101 -8.5t81.5 -17t59.5 -30t44 -45.5t27.5 -65t16.5 -87t4 -113q0 -83 -7.5 -139.5t-29.5 -99t-53 -67t-86 -39.5t-119 -19.5t-163 -4.5h-324zM369 203q88 0 111.5 29.5t23.5 136.5q0 104 -26 135t-109 31v-332z" />
<glyph unicode="&#x44d;" horiz-adv-x="872" d="M45 291v172h324v-182q0 -82 67 -82q68 0 68 82v229h-219v199h219v182q0 82 -68 82q-67 0 -67 -82v-133h-324v98q0 91 31.5 157t87.5 103t123.5 53.5t150.5 16.5q181 0 285 -90.5t104 -237.5v-547q0 -165 -101 -245t-288 -80q-183 0 -288 73.5t-105 231.5z" />
<glyph unicode="&#x44e;" horiz-adv-x="1290" d="M45 0v1171h324v-454h106v139q0 159 98.5 244.5t286.5 85.5t286.5 -85.5t98.5 -244.5v-559q0 -104 -54 -176t-138.5 -103.5t-192.5 -31.5t-192.5 31.5t-138.5 103.5t-54 176v207h-106v-504h-324zM799 281q0 -82 61 -82q62 0 62 82v610q0 82 -62 82q-61 0 -61 -82v-610z " />
<glyph unicode="&#x44f;" horiz-adv-x="872" d="M0 0q47 60 47 164v233q0 90 43 142.5t148 70.5v4q-110 25 -150.5 86.5t-40.5 198.5q0 61 13.5 105.5t43.5 74.5t66 48.5t94 28t114 12.5t138 3h311v-1171h-323v512q-77 0 -105 -23t-28 -98v-227q0 -107 -45 -164h-326zM369 842q0 -48 3 -70t17 -40t40 -22.5t75 -4.5v266 q-83 0 -109 -23t-26 -106z" />
<glyph unicode="&#x451;" horiz-adv-x="872" d="M45 297v559q0 159 101 244.5t290 85.5q82 0 149 -16.5t123 -53t87.5 -103t31.5 -157.5v-307h-458v-238q0 -53 17.5 -82.5t49.5 -29.5q68 0 68 112v152h323v-172q0 -158 -105 -231.5t-286 -73.5q-108 0 -194 31.5t-141.5 103.5t-55.5 176zM152 1331v252h229v-252h-229z M369 743h135v160q0 70 -68 70q-67 0 -67 -70v-160zM492 1331v252h229v-252h-229z" />
<glyph unicode="&#x452;" horiz-adv-x="952" d="M16 958v213h109v287h324v-287h282v-213h-282v-245h4q51 159 229 159q225 0 225 -278v-481q0 -91 -27.5 -161t-68 -109.5t-96 -64t-102.5 -32.5t-97 -8v213q68 0 68 72v456q0 30 -1.5 47.5t-7.5 38.5t-20.5 31t-38.5 10q-19 0 -32 -8t-20 -18t-10.5 -29.5t-4 -33.5 t-0.5 -38v-479h-324v958h-109z" />
<glyph unicode="&#x453;" horiz-adv-x="681" d="M45 0v1171h617v-213h-293v-958h-324zM154 1309l200 288h236l-299 -288h-137z" />
<glyph unicode="&#x454;" horiz-adv-x="872" d="M45 311v547q0 147 104 237.5t285 90.5q83 0 150.5 -16.5t123.5 -53.5t87.5 -103t31.5 -157v-98h-323v133q0 82 -68 82q-67 0 -67 -82v-182h219v-199h-219v-229q0 -82 67 -82q68 0 68 82v182h323v-172q0 -158 -105 -231.5t-288 -73.5q-187 0 -288 80t-101 245z" />
<glyph unicode="&#x455;" horiz-adv-x="872" d="M45 276v187h324v-176q0 -88 67 -88q68 0 68 88q0 56 -25.5 99t-66 70.5t-89.5 52.5t-97.5 54t-89 65t-66 95.5t-25.5 136.5q0 166 104 246t275 80q189 0 296 -74.5t107 -218.5v-135h-323v127q0 88 -68 88q-67 0 -67 -88q0 -40 25 -73t65 -57t88 -48.5t96 -56t88 -70.5 t65 -101t25 -139q0 -174 -103.5 -264t-305.5 -90q-80 0 -145 16t-115.5 49.5t-78.5 90.5t-28 134z" />
<glyph unicode="&#x456;" horiz-adv-x="417" d="M47 0v1171h324v-1171h-324zM47 1251v207h324v-207h-324z" />
<glyph unicode="&#x457;" horiz-adv-x="417" d="M-76 1331v252h230v-252h-230zM47 0v1171h324v-1171h-324zM264 1331v252h230v-252h-230z" />
<glyph unicode="&#x458;" horiz-adv-x="417" d="M-98 -49h43q61 0 81.5 24.5t20.5 106.5v1089h324v-1198q0 -130 -56.5 -182.5t-187.5 -52.5h-225v213zM47 1251v207h324v-207h-324z" />
<glyph unicode="&#x459;" horiz-adv-x="1359" d="M0 -14v252q66 0 84 71t18 277v585h762l-2 -434q76 0 126.5 -2t101 -8t81 -17t60 -30.5t44.5 -45.5t27.5 -65t16.5 -87t4 -113q0 -83 -7.5 -139.5t-30 -99t-53 -67t-86 -39.5t-119.5 -19.5t-163 -4.5h-323v958h-135v-372q0 -87 -1.5 -138t-9.5 -123t-23.5 -114t-45 -90.5 t-72 -74t-107 -43t-147.5 -17.5zM864 203q88 0 111.5 29.5t23.5 136.5q0 104 -26 135t-109 31v-332z" />
<glyph unicode="&#x45a;" horiz-adv-x="1323" d="M45 0v1171h324v-454h135v454h323l-2 -434q76 0 126.5 -2t101 -8t81 -17t60 -30.5t44.5 -45.5t27.5 -65t16.5 -87t4 -113q0 -83 -7.5 -139.5t-30 -99t-53 -67t-86 -39.5t-119.5 -19.5t-163 -4.5h-323v504h-135v-504h-324zM827 203q88 0 112 29.5t24 136.5q0 104 -26.5 135 t-109.5 31v-332z" />
<glyph unicode="&#x45b;" horiz-adv-x="952" d="M16 958v213h109v287h324v-287h282v-213h-282v-245h4q51 159 229 159q225 0 225 -278v-594h-323v479q0 30 -1.5 47.5t-7.5 38.5t-20.5 31t-38.5 10q-19 0 -32 -8t-20 -18t-10.5 -29.5t-4 -33.5t-0.5 -38v-479h-324v958h-109z" />
<glyph unicode="&#x45c;" horiz-adv-x="872" d="M45 0v1171h324v-534h4l166 534h313l-186 -524l202 -647h-329l-166 612h-4v-612h-324zM254 1309l201 288h235l-299 -288h-137z" />
<glyph unicode="&#x45e;" horiz-adv-x="833" d="M4 1171h330l108 -809h4l109 809h270l-260 -1234q-20 -99 -87.5 -149t-174.5 -50h-260v213h168q32 0 44.5 7.5t12.5 25.5q0 11 -8 51zM127 1583h115q19 -113 194 -113q65 0 113 27t59 86h119q0 -134 -86 -203t-225 -69q-125 0 -207 73t-82 199z" />
<glyph unicode="&#x45f;" horiz-adv-x="872" d="M45 0v1171h324v-958h133v958h323v-1171h-241v-221h-297v221h-242z" />
<glyph unicode="&#x490;" horiz-adv-x="757" d="M45 0v1458h391v221h314v-442h-365v-1237h-340z" />
<glyph unicode="&#x491;" horiz-adv-x="681" d="M45 0v1171h317v222h297v-435h-290v-958h-324z" />
<glyph unicode="&#x2000;" horiz-adv-x="916" />
<glyph unicode="&#x2001;" horiz-adv-x="1833" />
<glyph unicode="&#x2002;" horiz-adv-x="916" />
<glyph unicode="&#x2003;" horiz-adv-x="1833" />
<glyph unicode="&#x2004;" horiz-adv-x="611" />
<glyph unicode="&#x2005;" horiz-adv-x="458" />
<glyph unicode="&#x2006;" horiz-adv-x="305" />
<glyph unicode="&#x2007;" horiz-adv-x="305" />
<glyph unicode="&#x2008;" horiz-adv-x="229" />
<glyph unicode="&#x2009;" horiz-adv-x="366" />
<glyph unicode="&#x200a;" horiz-adv-x="101" />
<glyph unicode="&#x2010;" horiz-adv-x="530" d="M37 530v242h455v-242h-455z" />
<glyph unicode="&#x2011;" horiz-adv-x="530" d="M37 530v242h455v-242h-455z" />
<glyph unicode="&#x2012;" horiz-adv-x="530" d="M37 530v242h455v-242h-455z" />
<glyph unicode="&#x2013;" horiz-adv-x="1024" d="M0 537v229h1024v-229h-1024z" />
<glyph unicode="&#x2014;" horiz-adv-x="2048" d="M0 537v229h2048v-229h-2048z" />
<glyph unicode="&#x2018;" horiz-adv-x="417" d="M25 1458h301l67 -514h-207z" />
<glyph unicode="&#x2019;" horiz-adv-x="417" d="M25 944l67 514h301l-162 -514h-206z" />
<glyph unicode="&#x201a;" horiz-adv-x="417" d="M25 -195l67 514h301l-162 -514h-206z" />
<glyph unicode="&#x201c;" horiz-adv-x="872" d="M68 1458h301l67 -514h-207zM485 1458h301l68 -514h-207z" />
<glyph unicode="&#x201d;" horiz-adv-x="872" d="M18 944l68 514h301l-162 -514h-207zM436 944l68 514h301l-162 -514h-207z" />
<glyph unicode="&#x201e;" horiz-adv-x="872" d="M18 -195l68 514h301l-162 -514h-207zM436 -195l68 514h301l-162 -514h-207z" />
<glyph unicode="&#x2020;" horiz-adv-x="872" d="M41 809v246h258v403h276v-403h256v-246h-256v-940h-276v940h-258z" />
<glyph unicode="&#x2021;" horiz-adv-x="872" d="M41 240v245h258v353h-258v245h258v375h276v-375h256v-245h-256v-353h256v-245h-256v-371h-276v371h-258z" />
<glyph unicode="&#x2022;" horiz-adv-x="1024" d="M147 729q-1 152 105 258.5t260 106.5q152 0 258.5 -106.5t106.5 -258.5t-106.5 -258t-258.5 -106q-153 0 -259 105.5t-106 258.5z" />
<glyph unicode="&#x2026;" horiz-adv-x="2048" d="M182 0v344h318v-344h-318zM864 0v344h318v-344h-318zM1546 0v344h318v-344h-318z" />
<glyph unicode="&#x202f;" horiz-adv-x="366" />
<glyph unicode="&#x2030;" horiz-adv-x="1554" d="M29 946v326q0 89 58 137.5t167 48.5t168 -48.5t59 -137.5v-326q0 -89 -59 -137.5t-168 -48.5t-167 48.5t-58 137.5zM154 -29l598 1516h127l-596 -1516h-129zM211 938q0 -22 11.5 -36.5t31.5 -14.5q21 0 33 14.5t12 36.5v342q0 22 -12 36.5t-33 14.5q-20 0 -31.5 -14.5 t-11.5 -36.5v-342zM555 186v326q0 89 58 137.5t167 48.5t168.5 -48.5t59.5 -137.5v-326q0 -89 -59.5 -137.5t-168.5 -48.5t-167 48.5t-58 137.5zM737 178q0 -22 11.5 -36.5t31.5 -14.5q21 0 33 14.5t12 36.5v342q0 22 -12 36.5t-33 14.5q-20 0 -31.5 -14.5t-11.5 -36.5v-342 zM1073 186v326q0 89 58 137.5t167 48.5t168.5 -48.5t59.5 -137.5v-326q0 -89 -59.5 -137.5t-168.5 -48.5t-167 48.5t-58 137.5zM1255 178q0 -22 11.5 -36.5t31.5 -14.5q21 0 33 14.5t12 36.5v342q0 22 -12 36.5t-33 14.5q-20 0 -31.5 -14.5t-11.5 -36.5v-342z" />
<glyph unicode="&#x2039;" horiz-adv-x="417" d="M78 514v274l309 312v-295l-154 -154l154 -153v-295z" />
<glyph unicode="&#x205f;" horiz-adv-x="458" />
<glyph unicode="&#x20ac;" d="M31 475l55 193h68q-2 16 -2 61q0 37 2 57h-123l55 191h82q64 510 453 510q87 0 153.5 -19t97.5 -43v-274q-61 76 -194 76q-94 0 -146 -61t-67 -189h356l-55 -191h-317v-55q0 -47 2 -63h278l-55 -193h-207q15 -125 67.5 -183.5t145.5 -58.5q128 0 192 68v-272 q-28 -23 -92.5 -39.5t-158.5 -16.5q-193 0 -305 123t-144 379h-141z" />
<glyph unicode="&#x2122;" horiz-adv-x="2048" d="M74 1274v184h704v-184h-229v-660h-246v660h-229zM971 614v844h319l183 -489l182 489h319v-844h-221v553h-4l-186 -553h-181l-186 553h-4v-553h-221z" />
<glyph unicode="&#x25fc;" horiz-adv-x="1167" d="M0 0v1167h1167v-1167h-1167z" />
</font>
</defs>
</svg>
